<mxfile host="app.diagrams.net" modified="2023-03-30T12:05:47.931Z" agent="Mozilla/5.0 (Windows NT 10.0; Win64; x64; rv:109.0) Gecko/20100101 Firefox/111.0" etag="F2xCebMXSkbdq4jqAFXV" version="21.1.2" type="device" pages="13">
  <diagram name="MainPage" id="4QHCHEwzM7NgPZoShcnq">
    <mxGraphModel dx="2074" dy="1106" grid="1" gridSize="10" guides="1" tooltips="1" connect="1" arrows="1" fold="1" page="1" pageScale="1" pageWidth="1600" pageHeight="900" math="0" shadow="0">
      <root>
        <mxCell id="0" />
        <mxCell id="Sikc8s6z_d72JEaeaKDz-20" parent="0" />
        <mxCell id="Sikc8s6z_d72JEaeaKDz-28" value="&lt;div&gt;DrawerCollector&lt;/div&gt;&lt;div&gt;&lt;br&gt;&lt;/div&gt;" style="strokeWidth=1;shadow=0;dashed=0;align=center;html=1;shape=mxgraph.mockup.containers.window;align=left;verticalAlign=top;spacingLeft=8;strokeColor2=#008cff;strokeColor3=#c4c4c4;fontColor=#FFFFFF;mainText=;fontSize=17;labelBackgroundColor=none;whiteSpace=wrap;strokeColor=#FFFFFF;fillColor=#182E3E;" vertex="1" parent="Sikc8s6z_d72JEaeaKDz-20">
          <mxGeometry x="80" y="40" width="1400" height="790" as="geometry" />
        </mxCell>
        <UserObject label="" link="data:page/id,hgLcFoqbssjTXuBi4_AG" id="BZGcnAVH1Ryqcp6diZ6F-3">
          <mxCell style="shape=mxgraph.mockup.containers.marginRect;rectMarginTop=10;strokeColor=#666666;strokeWidth=1;dashed=0;rounded=1;arcSize=5;recursiveResize=0;html=1;whiteSpace=wrap;fontColor=#FFFFFF;fillColor=#182E3E;" vertex="1" parent="Sikc8s6z_d72JEaeaKDz-20">
            <mxGeometry x="110" y="90" width="180" height="200" as="geometry" />
          </mxCell>
        </UserObject>
        <mxCell id="BZGcnAVH1Ryqcp6diZ6F-4" value="&lt;div&gt;Image Loader&lt;/div&gt;" style="shape=rect;strokeColor=none;fillColor=#008cff;strokeWidth=1;dashed=0;rounded=1;arcSize=20;fontColor=#ffffff;fontSize=17;spacing=2;spacingTop=-2;align=left;autosize=1;spacingLeft=4;resizeWidth=0;resizeHeight=0;perimeter=none;html=1;whiteSpace=wrap;" vertex="1" parent="BZGcnAVH1Ryqcp6diZ6F-3">
          <mxGeometry x="5" width="130" height="30" as="geometry" />
        </mxCell>
        <UserObject label="&lt;font style=&quot;font-size: 32px;&quot;&gt;&lt;b&gt;+&lt;/b&gt;&lt;/font&gt;" link="data:page/id,UpVtdRNt34tTqxoJonI-" id="BZGcnAVH1Ryqcp6diZ6F-5">
          <mxCell style="ellipse;whiteSpace=wrap;html=1;strokeColor=#FFFFFF;fillColor=#182E3E;labelBackgroundColor=none;fontColor=#FFFFFF;shadow=0;aspect=fixed;" vertex="1" parent="BZGcnAVH1Ryqcp6diZ6F-3">
            <mxGeometry x="60" y="70" width="60" height="60" as="geometry" />
          </mxCell>
        </UserObject>
        <mxCell id="BZGcnAVH1Ryqcp6diZ6F-6" value="&lt;div style=&quot;font-size: 16px;&quot;&gt;Add directory&lt;br style=&quot;font-size: 16px;&quot;&gt;&lt;/div&gt;" style="text;html=1;strokeColor=none;fillColor=none;align=center;verticalAlign=middle;whiteSpace=wrap;rounded=0;fontColor=#FFFFFF;fontStyle=1;fontSize=16;" vertex="1" parent="BZGcnAVH1Ryqcp6diZ6F-3">
          <mxGeometry x="2.5" y="140" width="175" height="30" as="geometry" />
        </mxCell>
        <mxCell id="BZGcnAVH1Ryqcp6diZ6F-8" value="" style="shape=mxgraph.mockup.containers.marginRect;rectMarginTop=10;strokeColor=#666666;strokeWidth=1;dashed=0;rounded=1;arcSize=5;recursiveResize=0;html=1;whiteSpace=wrap;fontColor=#FFFFFF;fillColor=#182E3E;" vertex="1" parent="Sikc8s6z_d72JEaeaKDz-20">
          <mxGeometry x="1120" y="80" width="340" height="720" as="geometry" />
        </mxCell>
        <mxCell id="BZGcnAVH1Ryqcp6diZ6F-9" value="Configuration" style="shape=rect;strokeColor=none;fillColor=#008cff;strokeWidth=1;dashed=0;rounded=1;arcSize=20;fontColor=#ffffff;fontSize=17;spacing=2;spacingTop=-2;align=left;autosize=1;spacingLeft=4;resizeWidth=0;resizeHeight=0;perimeter=none;html=1;whiteSpace=wrap;" vertex="1" parent="BZGcnAVH1Ryqcp6diZ6F-8">
          <mxGeometry x="5" width="130" height="30" as="geometry" />
        </mxCell>
        <mxCell id="Y7kr4lN_EB4moR-PGXCY-1" value="" style="html=1;shadow=0;dashed=0;align=center;verticalAlign=middle;shape=mxgraph.arrows2.arrow;dy=0;dx=30;notch=30;strokeColor=#FFFFFF;fontColor=#FFFFFF;fillColor=#182E3E;" vertex="1" parent="Sikc8s6z_d72JEaeaKDz-20">
          <mxGeometry x="300" y="170" width="100" height="60" as="geometry" />
        </mxCell>
        <mxCell id="VPWg5gSxR-0Wk0qPY_qC-0" value="" style="group" vertex="1" connectable="0" parent="Sikc8s6z_d72JEaeaKDz-20">
          <mxGeometry x="362.5" y="160" width="175" height="100" as="geometry" />
        </mxCell>
        <UserObject label="&lt;font style=&quot;font-size: 32px;&quot;&gt;&lt;b&gt;+&lt;/b&gt;&lt;/font&gt;" link="data:page/id,DdyOgkGcl3cxmvbCV8Uq" id="e9swa3hjPzflOzBYY6jh-0">
          <mxCell style="ellipse;whiteSpace=wrap;html=1;strokeColor=#FFFFFF;fillColor=#182E3E;labelBackgroundColor=none;fontColor=#FFFFFF;shadow=0;aspect=fixed;" vertex="1" parent="VPWg5gSxR-0Wk0qPY_qC-0">
            <mxGeometry x="57.5" width="60" height="60" as="geometry" />
          </mxCell>
        </UserObject>
        <mxCell id="e9swa3hjPzflOzBYY6jh-1" value="&lt;div style=&quot;font-size: 16px;&quot;&gt;Add Module&lt;br style=&quot;font-size: 16px;&quot;&gt;&lt;/div&gt;" style="text;html=1;strokeColor=none;fillColor=none;align=center;verticalAlign=middle;whiteSpace=wrap;rounded=0;fontColor=#FFFFFF;fontStyle=1;fontSize=16;" vertex="1" parent="VPWg5gSxR-0Wk0qPY_qC-0">
          <mxGeometry y="70" width="175" height="30" as="geometry" />
        </mxCell>
      </root>
    </mxGraphModel>
  </diagram>
  <diagram name="ImageLoaderPage" id="hgLcFoqbssjTXuBi4_AG">
    <mxGraphModel dx="2074" dy="1106" grid="1" gridSize="10" guides="1" tooltips="1" connect="1" arrows="1" fold="1" page="1" pageScale="1" pageWidth="1600" pageHeight="900" math="0" shadow="0">
      <root>
        <mxCell id="sGLYkjMO27j8jB1cmiwa-0" />
        <mxCell id="sGLYkjMO27j8jB1cmiwa-1" parent="sGLYkjMO27j8jB1cmiwa-0" />
        <UserObject label="&lt;div&gt;DrawerCollector&lt;/div&gt;&lt;div&gt;&lt;br&gt;&lt;/div&gt;" link="data:page/id,4QHCHEwzM7NgPZoShcnq" id="sGLYkjMO27j8jB1cmiwa-2">
          <mxCell style="strokeWidth=1;shadow=0;dashed=0;align=center;html=1;shape=mxgraph.mockup.containers.window;align=left;verticalAlign=top;spacingLeft=8;strokeColor2=#008cff;strokeColor3=#c4c4c4;fontColor=#FFFFFF;mainText=;fontSize=17;labelBackgroundColor=none;whiteSpace=wrap;strokeColor=#FFFFFF;fillColor=#182E3E;" vertex="1" parent="sGLYkjMO27j8jB1cmiwa-1">
            <mxGeometry x="80" y="40" width="1400" height="790" as="geometry" />
          </mxCell>
        </UserObject>
        <mxCell id="sGLYkjMO27j8jB1cmiwa-3" value="" style="shape=mxgraph.mockup.containers.marginRect;rectMarginTop=10;strokeColor=#70888f;strokeWidth=5;dashed=0;rounded=1;arcSize=5;recursiveResize=0;html=1;whiteSpace=wrap;fontColor=#FFFFFF;fillColor=#182E3E;" vertex="1" parent="sGLYkjMO27j8jB1cmiwa-1">
          <mxGeometry x="110" y="90" width="180" height="200" as="geometry" />
        </mxCell>
        <mxCell id="sGLYkjMO27j8jB1cmiwa-4" value="&lt;div&gt;Image Loader&lt;/div&gt;" style="shape=rect;strokeColor=none;fillColor=#008cff;strokeWidth=1;dashed=0;rounded=1;arcSize=20;fontColor=#ffffff;fontSize=17;spacing=2;spacingTop=-2;align=left;autosize=1;spacingLeft=4;resizeWidth=0;resizeHeight=0;perimeter=none;html=1;whiteSpace=wrap;" vertex="1" parent="sGLYkjMO27j8jB1cmiwa-3">
          <mxGeometry x="5" width="130" height="30" as="geometry" />
        </mxCell>
        <UserObject label="&lt;font style=&quot;font-size: 32px;&quot;&gt;&lt;b&gt;+&lt;/b&gt;&lt;/font&gt;" link="data:page/id,UpVtdRNt34tTqxoJonI-" id="sGLYkjMO27j8jB1cmiwa-5">
          <mxCell style="ellipse;whiteSpace=wrap;html=1;strokeColor=#FFFFFF;fillColor=#182E3E;labelBackgroundColor=none;fontColor=#FFFFFF;shadow=0;aspect=fixed;" vertex="1" parent="sGLYkjMO27j8jB1cmiwa-3">
            <mxGeometry x="60" y="70" width="60" height="60" as="geometry" />
          </mxCell>
        </UserObject>
        <mxCell id="sGLYkjMO27j8jB1cmiwa-6" value="&lt;div style=&quot;font-size: 16px;&quot;&gt;Add directory&lt;br style=&quot;font-size: 16px;&quot;&gt;&lt;/div&gt;" style="text;html=1;strokeColor=none;fillColor=none;align=center;verticalAlign=middle;whiteSpace=wrap;rounded=0;fontColor=#FFFFFF;fontStyle=1;fontSize=16;" vertex="1" parent="sGLYkjMO27j8jB1cmiwa-3">
          <mxGeometry x="2.5" y="140" width="175" height="30" as="geometry" />
        </mxCell>
        <mxCell id="sGLYkjMO27j8jB1cmiwa-7" value="" style="shape=mxgraph.mockup.containers.marginRect;rectMarginTop=10;strokeColor=#666666;strokeWidth=1;dashed=0;rounded=1;arcSize=5;recursiveResize=0;html=1;whiteSpace=wrap;fontColor=#FFFFFF;fillColor=#182E3E;" vertex="1" parent="sGLYkjMO27j8jB1cmiwa-1">
          <mxGeometry x="1120" y="80" width="340" height="720" as="geometry" />
        </mxCell>
        <mxCell id="sGLYkjMO27j8jB1cmiwa-8" value="Image Loader" style="shape=rect;strokeColor=none;fillColor=#008cff;strokeWidth=1;dashed=0;rounded=1;arcSize=20;fontColor=#ffffff;fontSize=17;spacing=2;spacingTop=-2;align=left;autosize=1;spacingLeft=4;resizeWidth=0;resizeHeight=0;perimeter=none;html=1;whiteSpace=wrap;" vertex="1" parent="sGLYkjMO27j8jB1cmiwa-7">
          <mxGeometry x="5" width="130" height="30" as="geometry" />
        </mxCell>
        <mxCell id="H2jxY5U8lig59B_fxIUB-10" value="Directory" style="whiteSpace=wrap;html=1;strokeColor=#FFFFFF;fontColor=#FFFFFF;fillColor=#182E3E;fontSize=16;fontStyle=1" vertex="1" parent="sGLYkjMO27j8jB1cmiwa-7">
          <mxGeometry x="10" y="40" width="260" height="40" as="geometry" />
        </mxCell>
        <mxCell id="H2jxY5U8lig59B_fxIUB-11" value="Files" style="whiteSpace=wrap;html=1;strokeColor=#FFFFFF;fontColor=#FFFFFF;fillColor=#182E3E;fontSize=16;fontStyle=1" vertex="1" parent="sGLYkjMO27j8jB1cmiwa-7">
          <mxGeometry x="270" y="40" width="60" height="40" as="geometry" />
        </mxCell>
        <mxCell id="H2jxY5U8lig59B_fxIUB-12" value="" style="whiteSpace=wrap;html=1;strokeColor=#FFFFFF;fontColor=#FFFFFF;fillColor=#182E3E;" vertex="1" parent="sGLYkjMO27j8jB1cmiwa-7">
          <mxGeometry x="10" y="80" width="320" height="620" as="geometry" />
        </mxCell>
        <mxCell id="r8GJR6RvqAK0Z7T6UhHm-0" value="" style="html=1;shadow=0;dashed=0;align=center;verticalAlign=middle;shape=mxgraph.arrows2.arrow;dy=0;dx=30;notch=30;strokeColor=#FFFFFF;fontColor=#FFFFFF;fillColor=#182E3E;" vertex="1" parent="sGLYkjMO27j8jB1cmiwa-1">
          <mxGeometry x="300" y="170" width="100" height="60" as="geometry" />
        </mxCell>
        <UserObject label="" link="data:page/id,DdyOgkGcl3cxmvbCV8Uq" id="Y3K2k-p9ZKK7vGbOh9vh-0">
          <mxCell style="group" vertex="1" connectable="0" parent="sGLYkjMO27j8jB1cmiwa-1">
            <mxGeometry x="362.5" y="160" width="175" height="100" as="geometry" />
          </mxCell>
        </UserObject>
        <UserObject label="&lt;font style=&quot;font-size: 32px;&quot;&gt;&lt;b&gt;+&lt;/b&gt;&lt;/font&gt;" id="Y3K2k-p9ZKK7vGbOh9vh-1">
          <mxCell style="ellipse;whiteSpace=wrap;html=1;strokeColor=#FFFFFF;fillColor=#182E3E;labelBackgroundColor=none;fontColor=#FFFFFF;shadow=0;aspect=fixed;" vertex="1" parent="Y3K2k-p9ZKK7vGbOh9vh-0">
            <mxGeometry x="57.5" width="60" height="60" as="geometry" />
          </mxCell>
        </UserObject>
        <mxCell id="Y3K2k-p9ZKK7vGbOh9vh-2" value="&lt;div style=&quot;font-size: 16px;&quot;&gt;Add Module&lt;br style=&quot;font-size: 16px;&quot;&gt;&lt;/div&gt;" style="text;html=1;strokeColor=none;fillColor=none;align=center;verticalAlign=middle;whiteSpace=wrap;rounded=0;fontColor=#FFFFFF;fontStyle=1;fontSize=16;" vertex="1" parent="Y3K2k-p9ZKK7vGbOh9vh-0">
          <mxGeometry y="70" width="175" height="30" as="geometry" />
        </mxCell>
      </root>
    </mxGraphModel>
  </diagram>
  <diagram name="ProcessingModulePageRotation" id="VNy_x9ZEN6lF7U0V-27q">
    <mxGraphModel dx="1728" dy="922" grid="1" gridSize="10" guides="1" tooltips="1" connect="1" arrows="1" fold="1" page="1" pageScale="1" pageWidth="1600" pageHeight="900" math="0" shadow="0">
      <root>
        <mxCell id="SKFq8kWOSzVU3YflYjA9-0" />
        <mxCell id="SKFq8kWOSzVU3YflYjA9-1" parent="SKFq8kWOSzVU3YflYjA9-0" />
        <UserObject label="&lt;div&gt;DrawerCollector&lt;/div&gt;&lt;div&gt;&lt;br&gt;&lt;br&gt;&lt;/div&gt;" link="data:page/id,4QHCHEwzM7NgPZoShcnq" id="SKFq8kWOSzVU3YflYjA9-2">
          <mxCell style="strokeWidth=1;shadow=0;dashed=0;align=center;html=1;shape=mxgraph.mockup.containers.window;align=left;verticalAlign=top;spacingLeft=8;strokeColor2=#008cff;strokeColor3=#c4c4c4;fontColor=#FFFFFF;mainText=;fontSize=17;labelBackgroundColor=none;whiteSpace=wrap;strokeColor=#FFFFFF;fillColor=#182E3E;" vertex="1" parent="SKFq8kWOSzVU3YflYjA9-1">
            <mxGeometry x="80" y="40" width="1400" height="790" as="geometry" />
          </mxCell>
        </UserObject>
        <UserObject label="" link="data:page/id,WiOPVLfUxMLQR4gikRVJ" id="SKFq8kWOSzVU3YflYjA9-3">
          <mxCell style="shape=mxgraph.mockup.containers.marginRect;rectMarginTop=10;strokeColor=#70888f;strokeWidth=1;dashed=0;rounded=1;arcSize=5;recursiveResize=0;html=1;whiteSpace=wrap;fontColor=#FFFFFF;fillColor=#182E3E;" vertex="1" parent="SKFq8kWOSzVU3YflYjA9-1">
            <mxGeometry x="110" y="90" width="180" height="200" as="geometry" />
          </mxCell>
        </UserObject>
        <mxCell id="SKFq8kWOSzVU3YflYjA9-4" value="&lt;div&gt;Image Loader&lt;/div&gt;" style="shape=rect;strokeColor=none;fillColor=#008cff;strokeWidth=1;dashed=0;rounded=1;arcSize=20;fontColor=#ffffff;fontSize=17;spacing=2;spacingTop=-2;align=left;autosize=1;spacingLeft=4;resizeWidth=0;resizeHeight=0;perimeter=none;html=1;whiteSpace=wrap;" vertex="1" parent="SKFq8kWOSzVU3YflYjA9-3">
          <mxGeometry x="5" width="130" height="30" as="geometry" />
        </mxCell>
        <UserObject label="&lt;font style=&quot;font-size: 32px;&quot;&gt;&lt;b&gt;+&lt;/b&gt;&lt;/font&gt;" link="data:page/id,UpVtdRNt34tTqxoJonI-" id="SKFq8kWOSzVU3YflYjA9-5">
          <mxCell style="ellipse;whiteSpace=wrap;html=1;strokeColor=#FFFFFF;fillColor=#182E3E;labelBackgroundColor=none;fontColor=#FFFFFF;shadow=0;aspect=fixed;" vertex="1" parent="SKFq8kWOSzVU3YflYjA9-3">
            <mxGeometry x="60" y="70" width="60" height="60" as="geometry" />
          </mxCell>
        </UserObject>
        <mxCell id="SKFq8kWOSzVU3YflYjA9-6" value="&lt;div style=&quot;font-size: 16px;&quot;&gt;Add directory&lt;br style=&quot;font-size: 16px;&quot;&gt;&lt;/div&gt;" style="text;html=1;strokeColor=none;fillColor=none;align=center;verticalAlign=middle;whiteSpace=wrap;rounded=0;fontColor=#FFFFFF;fontStyle=1;fontSize=16;" vertex="1" parent="SKFq8kWOSzVU3YflYjA9-3">
          <mxGeometry x="2.5" y="140" width="175" height="30" as="geometry" />
        </mxCell>
        <mxCell id="SKFq8kWOSzVU3YflYjA9-7" value="" style="shape=mxgraph.mockup.containers.marginRect;rectMarginTop=10;strokeColor=#666666;strokeWidth=1;dashed=0;rounded=1;arcSize=5;recursiveResize=0;html=1;whiteSpace=wrap;fontColor=#FFFFFF;fillColor=#182E3E;" vertex="1" parent="SKFq8kWOSzVU3YflYjA9-1">
          <mxGeometry x="1120" y="80" width="340" height="720" as="geometry" />
        </mxCell>
        <mxCell id="SKFq8kWOSzVU3YflYjA9-8" value="Rotation Module Configuration" style="shape=rect;strokeColor=none;fillColor=#008cff;strokeWidth=1;dashed=0;rounded=1;arcSize=20;fontColor=#ffffff;fontSize=17;spacing=2;spacingTop=-2;align=left;autosize=1;spacingLeft=4;resizeWidth=0;resizeHeight=0;perimeter=none;html=1;whiteSpace=wrap;" vertex="1" parent="SKFq8kWOSzVU3YflYjA9-7">
          <mxGeometry x="5" width="260" height="30" as="geometry" />
        </mxCell>
        <mxCell id="SKFq8kWOSzVU3YflYjA9-9" value="Parameter" style="whiteSpace=wrap;html=1;strokeColor=#FFFFFF;fontColor=#FFFFFF;fillColor=#182E3E;fontSize=16;fontStyle=1" vertex="1" parent="SKFq8kWOSzVU3YflYjA9-7">
          <mxGeometry x="10" y="40" width="170" height="40" as="geometry" />
        </mxCell>
        <mxCell id="SKFq8kWOSzVU3YflYjA9-10" value="Value" style="whiteSpace=wrap;html=1;strokeColor=#FFFFFF;fontColor=#FFFFFF;fillColor=#182E3E;fontSize=16;fontStyle=1" vertex="1" parent="SKFq8kWOSzVU3YflYjA9-7">
          <mxGeometry x="180" y="40" width="150" height="40" as="geometry" />
        </mxCell>
        <mxCell id="SKFq8kWOSzVU3YflYjA9-11" value="" style="whiteSpace=wrap;html=1;strokeColor=#FFFFFF;fontColor=#FFFFFF;fillColor=#182E3E;" vertex="1" parent="SKFq8kWOSzVU3YflYjA9-7">
          <mxGeometry x="10" y="80" width="320" height="620" as="geometry" />
        </mxCell>
        <mxCell id="i6L3_rqYi2wgmi7N0PD3-6" value="Angle" style="whiteSpace=wrap;html=1;strokeColor=#FFFFFF;fontColor=#FFFFFF;fillColor=#182E3E;fontSize=16;fontStyle=1" vertex="1" parent="SKFq8kWOSzVU3YflYjA9-7">
          <mxGeometry x="10" y="90" width="170" height="40" as="geometry" />
        </mxCell>
        <mxCell id="i6L3_rqYi2wgmi7N0PD3-7" value="90 deg." style="whiteSpace=wrap;html=1;strokeColor=#FFFFFF;fontColor=#FFFFFF;fillColor=#182E3E;fontSize=16;fontStyle=1" vertex="1" parent="SKFq8kWOSzVU3YflYjA9-7">
          <mxGeometry x="180" y="90" width="150" height="40" as="geometry" />
        </mxCell>
        <mxCell id="SKFq8kWOSzVU3YflYjA9-12" value="" style="html=1;shadow=0;dashed=0;align=center;verticalAlign=middle;shape=mxgraph.arrows2.arrow;dy=0;dx=30;notch=30;strokeColor=#FFFFFF;fontColor=#FFFFFF;fillColor=#182E3E;" vertex="1" parent="SKFq8kWOSzVU3YflYjA9-1">
          <mxGeometry x="300" y="170" width="100" height="60" as="geometry" />
        </mxCell>
        <UserObject label="" id="SKFq8kWOSzVU3YflYjA9-13">
          <mxCell style="shape=mxgraph.mockup.containers.marginRect;rectMarginTop=10;strokeColor=#666666;strokeWidth=5;dashed=0;rounded=1;arcSize=5;recursiveResize=0;html=1;whiteSpace=wrap;fontColor=#FFFFFF;fillColor=#182E3E;" vertex="1" parent="SKFq8kWOSzVU3YflYjA9-1">
            <mxGeometry x="410" y="90" width="180" height="200" as="geometry" />
          </mxCell>
        </UserObject>
        <mxCell id="SKFq8kWOSzVU3YflYjA9-14" value="Rotation" style="shape=rect;strokeColor=none;fillColor=#008cff;strokeWidth=1;dashed=0;rounded=1;arcSize=20;fontColor=#ffffff;fontSize=17;spacing=2;spacingTop=-2;align=left;autosize=1;spacingLeft=4;resizeWidth=0;resizeHeight=0;perimeter=none;html=1;whiteSpace=wrap;" vertex="1" parent="SKFq8kWOSzVU3YflYjA9-13">
          <mxGeometry x="5" width="90" height="30" as="geometry" />
        </mxCell>
        <UserObject label="&lt;span style=&quot;font-size: 16px;&quot;&gt;X&lt;/span&gt;" link="data:page/id,4QHCHEwzM7NgPZoShcnq" id="AwU_nWLFD3IWpCEmYr8r-0">
          <mxCell style="ellipse;whiteSpace=wrap;html=1;strokeColor=#C73500;fillColor=none;labelBackgroundColor=none;fontColor=#e64500;shadow=0;aspect=fixed;fontStyle=1;fontSize=16;strokeWidth=3;" vertex="1" parent="SKFq8kWOSzVU3YflYjA9-13">
            <mxGeometry x="60" y="80" width="60" height="60" as="geometry" />
          </mxCell>
        </UserObject>
        <mxCell id="0AKEfZ34rkabN835POZt-0" value="" style="group" vertex="1" connectable="0" parent="SKFq8kWOSzVU3YflYjA9-1">
          <mxGeometry x="692.5" y="160" width="175" height="100" as="geometry" />
        </mxCell>
        <UserObject label="&lt;font style=&quot;font-size: 32px;&quot;&gt;&lt;b&gt;+&lt;/b&gt;&lt;/font&gt;" id="0AKEfZ34rkabN835POZt-1">
          <mxCell style="ellipse;whiteSpace=wrap;html=1;strokeColor=#FFFFFF;fillColor=#182E3E;labelBackgroundColor=none;fontColor=#FFFFFF;shadow=0;aspect=fixed;" vertex="1" parent="0AKEfZ34rkabN835POZt-0">
            <mxGeometry x="57.5" width="60" height="60" as="geometry" />
          </mxCell>
        </UserObject>
        <mxCell id="0AKEfZ34rkabN835POZt-2" value="&lt;div style=&quot;font-size: 16px;&quot;&gt;Add Module&lt;br style=&quot;font-size: 16px;&quot;&gt;&lt;/div&gt;" style="text;html=1;strokeColor=none;fillColor=none;align=center;verticalAlign=middle;whiteSpace=wrap;rounded=0;fontColor=#FFFFFF;fontStyle=1;fontSize=16;" vertex="1" parent="0AKEfZ34rkabN835POZt-0">
          <mxGeometry y="70" width="175" height="30" as="geometry" />
        </mxCell>
        <mxCell id="0AKEfZ34rkabN835POZt-3" value="" style="html=1;shadow=0;dashed=0;align=center;verticalAlign=middle;shape=mxgraph.arrows2.arrow;dy=0;dx=30;notch=30;strokeColor=#FFFFFF;fontColor=#FFFFFF;fillColor=#182E3E;" vertex="1" parent="SKFq8kWOSzVU3YflYjA9-1">
          <mxGeometry x="610" y="170" width="100" height="60" as="geometry" />
        </mxCell>
        <UserObject label="&lt;div style=&quot;font-size: 16px;&quot;&gt;Start processing&lt;/div&gt;" link="data:page/id,f459UlWJwNEQwopyS50J" id="DhT2x5aYPMqxzXCA-aeU-0">
          <mxCell style="whiteSpace=wrap;html=1;strokeColor=#005700;fillColor=#008a00;rounded=1;fontSize=16;fontStyle=1;fontColor=#ffffff;" vertex="1" parent="SKFq8kWOSzVU3YflYjA9-1">
            <mxGeometry x="850" y="160" width="140" height="60" as="geometry" />
          </mxCell>
        </UserObject>
      </root>
    </mxGraphModel>
  </diagram>
  <diagram name="ProcessingPage" id="FxG1GgXOQTzsYyO-scgQ">
    <mxGraphModel dx="2074" dy="1106" grid="1" gridSize="10" guides="1" tooltips="1" connect="1" arrows="1" fold="1" page="1" pageScale="1" pageWidth="1600" pageHeight="900" math="0" shadow="0">
      <root>
        <mxCell id="E5h4Y8q7N4OkGtSlHdv4-0" />
        <mxCell id="E5h4Y8q7N4OkGtSlHdv4-1" parent="E5h4Y8q7N4OkGtSlHdv4-0" />
        <UserObject label="&lt;div&gt;DrawerCollector&lt;/div&gt;&lt;div&gt;&lt;br&gt;&lt;br&gt;&lt;/div&gt;" id="E5h4Y8q7N4OkGtSlHdv4-2">
          <mxCell style="strokeWidth=1;shadow=0;dashed=0;align=center;html=1;shape=mxgraph.mockup.containers.window;align=left;verticalAlign=top;spacingLeft=8;strokeColor2=#008cff;strokeColor3=#c4c4c4;fontColor=#FFFFFF;mainText=;fontSize=17;labelBackgroundColor=none;whiteSpace=wrap;strokeColor=#FFFFFF;fillColor=#182E3E;" vertex="1" parent="E5h4Y8q7N4OkGtSlHdv4-1">
            <mxGeometry x="80" y="40" width="1400" height="790" as="geometry" />
          </mxCell>
        </UserObject>
        <UserObject label="" id="E5h4Y8q7N4OkGtSlHdv4-3">
          <mxCell style="shape=mxgraph.mockup.containers.marginRect;rectMarginTop=10;strokeColor=#70888f;strokeWidth=1;dashed=0;rounded=1;arcSize=5;recursiveResize=0;html=1;whiteSpace=wrap;fontColor=#FFFFFF;fillColor=#182E3E;" vertex="1" parent="E5h4Y8q7N4OkGtSlHdv4-1">
            <mxGeometry x="110" y="90" width="180" height="200" as="geometry" />
          </mxCell>
        </UserObject>
        <mxCell id="E5h4Y8q7N4OkGtSlHdv4-4" value="&lt;div&gt;Image Loader&lt;/div&gt;" style="shape=rect;strokeColor=none;fillColor=#008cff;strokeWidth=1;dashed=0;rounded=1;arcSize=20;fontColor=#ffffff;fontSize=17;spacing=2;spacingTop=-2;align=left;autosize=1;spacingLeft=4;resizeWidth=0;resizeHeight=0;perimeter=none;html=1;whiteSpace=wrap;" vertex="1" parent="E5h4Y8q7N4OkGtSlHdv4-3">
          <mxGeometry x="5" width="130" height="30" as="geometry" />
        </mxCell>
        <mxCell id="qvlTHcUzse7tSTHT7TKm-0" value="" style="verticalLabelPosition=bottom;verticalAlign=top;html=1;shape=mxgraph.basic.tick;strokeColor=#2D7600;fontColor=#ffffff;fillColor=#60a917;" vertex="1" parent="E5h4Y8q7N4OkGtSlHdv4-3">
          <mxGeometry x="47.5" y="50" width="85" height="100" as="geometry" />
        </mxCell>
        <mxCell id="E5h4Y8q7N4OkGtSlHdv4-14" value="" style="html=1;shadow=0;dashed=0;align=center;verticalAlign=middle;shape=mxgraph.arrows2.arrow;dy=0;dx=30;notch=30;strokeColor=#2D7600;fontColor=#ffffff;fillColor=#60a917;" vertex="1" parent="E5h4Y8q7N4OkGtSlHdv4-1">
          <mxGeometry x="300" y="170" width="100" height="60" as="geometry" />
        </mxCell>
        <UserObject label="" id="E5h4Y8q7N4OkGtSlHdv4-15">
          <mxCell style="shape=mxgraph.mockup.containers.marginRect;rectMarginTop=10;strokeColor=#666666;strokeWidth=5;dashed=0;rounded=1;arcSize=5;recursiveResize=0;html=1;whiteSpace=wrap;fontColor=#FFFFFF;fillColor=#182E3E;" vertex="1" parent="E5h4Y8q7N4OkGtSlHdv4-1">
            <mxGeometry x="410" y="90" width="185" height="200" as="geometry" />
          </mxCell>
        </UserObject>
        <mxCell id="E5h4Y8q7N4OkGtSlHdv4-16" value="Processing Module 1" style="shape=rect;strokeColor=none;fillColor=#008cff;strokeWidth=1;dashed=0;rounded=1;arcSize=20;fontColor=#ffffff;fontSize=17;spacing=2;spacingTop=-2;align=left;autosize=1;spacingLeft=4;resizeWidth=0;resizeHeight=0;perimeter=none;html=1;whiteSpace=wrap;" vertex="1" parent="E5h4Y8q7N4OkGtSlHdv4-15">
          <mxGeometry x="5" width="180" height="30" as="geometry" />
        </mxCell>
        <mxCell id="__dHwhygnvXSexR9JRXS-4" value="" style="verticalLabelPosition=bottom;shadow=0;dashed=0;align=center;html=1;verticalAlign=top;strokeWidth=1;shape=mxgraph.mockup.misc.loading_circle_1;pointerEvents=1;strokeColor=#FFFFFF;fontColor=#FFFFFF;fillColor=#182E3E;" vertex="1" parent="E5h4Y8q7N4OkGtSlHdv4-15">
          <mxGeometry x="50" y="65" width="90" height="90" as="geometry" />
        </mxCell>
        <mxCell id="E5h4Y8q7N4OkGtSlHdv4-21" value="" style="html=1;shadow=0;dashed=0;align=center;verticalAlign=middle;shape=mxgraph.arrows2.arrow;dy=0;dx=30;notch=30;strokeColor=#6F0000;fontColor=#ffffff;fillColor=#a20025;" vertex="1" parent="E5h4Y8q7N4OkGtSlHdv4-1">
          <mxGeometry x="610" y="170" width="100" height="60" as="geometry" />
        </mxCell>
        <UserObject label="Abort" link="data:page/id,4QHCHEwzM7NgPZoShcnq" id="E5h4Y8q7N4OkGtSlHdv4-22">
          <mxCell style="whiteSpace=wrap;html=1;strokeColor=#6F0000;fillColor=#a20025;rounded=1;fontSize=16;fontStyle=1;fontColor=#ffffff;" vertex="1" parent="E5h4Y8q7N4OkGtSlHdv4-1">
            <mxGeometry x="940" y="160" width="140" height="60" as="geometry" />
          </mxCell>
        </UserObject>
        <UserObject label="" id="__dHwhygnvXSexR9JRXS-1">
          <mxCell style="shape=mxgraph.mockup.containers.marginRect;rectMarginTop=10;strokeColor=#666666;strokeWidth=5;dashed=0;rounded=1;arcSize=5;recursiveResize=0;html=1;whiteSpace=wrap;fontColor=#FFFFFF;fillColor=#182E3E;" vertex="1" parent="E5h4Y8q7N4OkGtSlHdv4-1">
            <mxGeometry x="730" y="90" width="185" height="200" as="geometry" />
          </mxCell>
        </UserObject>
        <mxCell id="__dHwhygnvXSexR9JRXS-2" value="Processing Module 2" style="shape=rect;strokeColor=none;fillColor=#008cff;strokeWidth=1;dashed=0;rounded=1;arcSize=20;fontColor=#ffffff;fontSize=17;spacing=2;spacingTop=-2;align=left;autosize=1;spacingLeft=4;resizeWidth=0;resizeHeight=0;perimeter=none;html=1;whiteSpace=wrap;" vertex="1" parent="__dHwhygnvXSexR9JRXS-1">
          <mxGeometry x="5" width="180" height="30" as="geometry" />
        </mxCell>
        <mxCell id="__dHwhygnvXSexR9JRXS-5" value="" style="verticalLabelPosition=bottom;shadow=0;dashed=0;align=center;html=1;verticalAlign=top;strokeWidth=1;shape=mxgraph.mockup.misc.loading_circle_1;pointerEvents=1;strokeColor=#FFFFFF;fontColor=#FFFFFF;fillColor=#182E3E;" vertex="1" parent="__dHwhygnvXSexR9JRXS-1">
          <mxGeometry x="50" y="65" width="90" height="90" as="geometry" />
        </mxCell>
      </root>
    </mxGraphModel>
  </diagram>
  <diagram name="ProcessingModulePageRotationImageLoaderCfg" id="WiOPVLfUxMLQR4gikRVJ">
    <mxGraphModel dx="2074" dy="1106" grid="1" gridSize="10" guides="1" tooltips="1" connect="1" arrows="1" fold="1" page="1" pageScale="1" pageWidth="1600" pageHeight="900" math="0" shadow="0">
      <root>
        <mxCell id="2y9sZ35G98QOjDsGW6FF-0" />
        <mxCell id="2y9sZ35G98QOjDsGW6FF-1" parent="2y9sZ35G98QOjDsGW6FF-0" />
        <UserObject label="&lt;div&gt;DrawerCollector&lt;/div&gt;&lt;div&gt;&lt;br&gt;&lt;br&gt;&lt;/div&gt;" link="data:page/id,4QHCHEwzM7NgPZoShcnq" id="2y9sZ35G98QOjDsGW6FF-2">
          <mxCell style="strokeWidth=1;shadow=0;dashed=0;align=center;html=1;shape=mxgraph.mockup.containers.window;align=left;verticalAlign=top;spacingLeft=8;strokeColor2=#008cff;strokeColor3=#c4c4c4;fontColor=#FFFFFF;mainText=;fontSize=17;labelBackgroundColor=none;whiteSpace=wrap;strokeColor=#FFFFFF;fillColor=#182E3E;" vertex="1" parent="2y9sZ35G98QOjDsGW6FF-1">
            <mxGeometry x="80" y="40" width="1400" height="790" as="geometry" />
          </mxCell>
        </UserObject>
        <UserObject label="" link="data:page/id,hgLcFoqbssjTXuBi4_AG" id="2y9sZ35G98QOjDsGW6FF-3">
          <mxCell style="shape=mxgraph.mockup.containers.marginRect;rectMarginTop=10;strokeColor=#70888f;strokeWidth=5;dashed=0;rounded=1;arcSize=5;recursiveResize=0;html=1;whiteSpace=wrap;fontColor=#FFFFFF;fillColor=#182E3E;" vertex="1" parent="2y9sZ35G98QOjDsGW6FF-1">
            <mxGeometry x="110" y="90" width="180" height="200" as="geometry" />
          </mxCell>
        </UserObject>
        <mxCell id="2y9sZ35G98QOjDsGW6FF-4" value="&lt;div&gt;Image Loader&lt;/div&gt;" style="shape=rect;strokeColor=none;fillColor=#008cff;strokeWidth=1;dashed=0;rounded=1;arcSize=20;fontColor=#ffffff;fontSize=17;spacing=2;spacingTop=-2;align=left;autosize=1;spacingLeft=4;resizeWidth=0;resizeHeight=0;perimeter=none;html=1;whiteSpace=wrap;" vertex="1" parent="2y9sZ35G98QOjDsGW6FF-3">
          <mxGeometry x="5" width="130" height="30" as="geometry" />
        </mxCell>
        <UserObject label="&lt;font style=&quot;font-size: 32px;&quot;&gt;&lt;b&gt;+&lt;/b&gt;&lt;/font&gt;" link="data:page/id,UpVtdRNt34tTqxoJonI-" id="2y9sZ35G98QOjDsGW6FF-5">
          <mxCell style="ellipse;whiteSpace=wrap;html=1;strokeColor=#FFFFFF;fillColor=#182E3E;labelBackgroundColor=none;fontColor=#FFFFFF;shadow=0;aspect=fixed;" vertex="1" parent="2y9sZ35G98QOjDsGW6FF-3">
            <mxGeometry x="60" y="70" width="60" height="60" as="geometry" />
          </mxCell>
        </UserObject>
        <mxCell id="2y9sZ35G98QOjDsGW6FF-6" value="&lt;div style=&quot;font-size: 16px;&quot;&gt;Add directory&lt;br style=&quot;font-size: 16px;&quot;&gt;&lt;/div&gt;" style="text;html=1;strokeColor=none;fillColor=none;align=center;verticalAlign=middle;whiteSpace=wrap;rounded=0;fontColor=#FFFFFF;fontStyle=1;fontSize=16;" vertex="1" parent="2y9sZ35G98QOjDsGW6FF-3">
          <mxGeometry x="2.5" y="140" width="175" height="30" as="geometry" />
        </mxCell>
        <mxCell id="2y9sZ35G98QOjDsGW6FF-14" value="" style="html=1;shadow=0;dashed=0;align=center;verticalAlign=middle;shape=mxgraph.arrows2.arrow;dy=0;dx=30;notch=30;strokeColor=#FFFFFF;fontColor=#FFFFFF;fillColor=#182E3E;" vertex="1" parent="2y9sZ35G98QOjDsGW6FF-1">
          <mxGeometry x="300" y="170" width="100" height="60" as="geometry" />
        </mxCell>
        <UserObject label="" link="data:page/id,VNy_x9ZEN6lF7U0V-27q" id="2y9sZ35G98QOjDsGW6FF-15">
          <mxCell style="shape=mxgraph.mockup.containers.marginRect;rectMarginTop=10;strokeColor=#666666;strokeWidth=1;dashed=0;rounded=1;arcSize=5;recursiveResize=0;html=1;whiteSpace=wrap;fontColor=#FFFFFF;fillColor=#182E3E;" vertex="1" parent="2y9sZ35G98QOjDsGW6FF-1">
            <mxGeometry x="410" y="90" width="180" height="200" as="geometry" />
          </mxCell>
        </UserObject>
        <mxCell id="2y9sZ35G98QOjDsGW6FF-16" value="Rotation" style="shape=rect;strokeColor=none;fillColor=#008cff;strokeWidth=1;dashed=0;rounded=1;arcSize=20;fontColor=#ffffff;fontSize=17;spacing=2;spacingTop=-2;align=left;autosize=1;spacingLeft=4;resizeWidth=0;resizeHeight=0;perimeter=none;html=1;whiteSpace=wrap;" vertex="1" parent="2y9sZ35G98QOjDsGW6FF-15">
          <mxGeometry x="5" width="90" height="30" as="geometry" />
        </mxCell>
        <UserObject label="&lt;span style=&quot;font-size: 16px;&quot;&gt;X&lt;/span&gt;" link="data:page/id,4QHCHEwzM7NgPZoShcnq" id="2y9sZ35G98QOjDsGW6FF-17">
          <mxCell style="ellipse;whiteSpace=wrap;html=1;strokeColor=#C73500;fillColor=none;labelBackgroundColor=none;fontColor=#e64500;shadow=0;aspect=fixed;fontStyle=1;fontSize=16;strokeWidth=3;" vertex="1" parent="2y9sZ35G98QOjDsGW6FF-15">
            <mxGeometry x="60" y="80" width="60" height="60" as="geometry" />
          </mxCell>
        </UserObject>
        <mxCell id="2y9sZ35G98QOjDsGW6FF-18" value="" style="group" vertex="1" connectable="0" parent="2y9sZ35G98QOjDsGW6FF-1">
          <mxGeometry x="692.5" y="160" width="175" height="100" as="geometry" />
        </mxCell>
        <UserObject label="&lt;font style=&quot;font-size: 32px;&quot;&gt;&lt;b&gt;+&lt;/b&gt;&lt;/font&gt;" id="2y9sZ35G98QOjDsGW6FF-19">
          <mxCell style="ellipse;whiteSpace=wrap;html=1;strokeColor=#FFFFFF;fillColor=#182E3E;labelBackgroundColor=none;fontColor=#FFFFFF;shadow=0;aspect=fixed;" vertex="1" parent="2y9sZ35G98QOjDsGW6FF-18">
            <mxGeometry x="57.5" width="60" height="60" as="geometry" />
          </mxCell>
        </UserObject>
        <mxCell id="2y9sZ35G98QOjDsGW6FF-20" value="&lt;div style=&quot;font-size: 16px;&quot;&gt;Add Module&lt;br style=&quot;font-size: 16px;&quot;&gt;&lt;/div&gt;" style="text;html=1;strokeColor=none;fillColor=none;align=center;verticalAlign=middle;whiteSpace=wrap;rounded=0;fontColor=#FFFFFF;fontStyle=1;fontSize=16;" vertex="1" parent="2y9sZ35G98QOjDsGW6FF-18">
          <mxGeometry y="70" width="175" height="30" as="geometry" />
        </mxCell>
        <mxCell id="2y9sZ35G98QOjDsGW6FF-21" value="" style="html=1;shadow=0;dashed=0;align=center;verticalAlign=middle;shape=mxgraph.arrows2.arrow;dy=0;dx=30;notch=30;strokeColor=#FFFFFF;fontColor=#FFFFFF;fillColor=#182E3E;" vertex="1" parent="2y9sZ35G98QOjDsGW6FF-1">
          <mxGeometry x="610" y="170" width="100" height="60" as="geometry" />
        </mxCell>
        <mxCell id="eYcTT7ywrqwXEYDDCLu7-0" value="" style="shape=mxgraph.mockup.containers.marginRect;rectMarginTop=10;strokeColor=#666666;strokeWidth=1;dashed=0;rounded=1;arcSize=5;recursiveResize=0;html=1;whiteSpace=wrap;fontColor=#FFFFFF;fillColor=#182E3E;" vertex="1" parent="2y9sZ35G98QOjDsGW6FF-1">
          <mxGeometry x="1120" y="80" width="340" height="720" as="geometry" />
        </mxCell>
        <mxCell id="eYcTT7ywrqwXEYDDCLu7-1" value="Image Loader" style="shape=rect;strokeColor=none;fillColor=#008cff;strokeWidth=1;dashed=0;rounded=1;arcSize=20;fontColor=#ffffff;fontSize=17;spacing=2;spacingTop=-2;align=left;autosize=1;spacingLeft=4;resizeWidth=0;resizeHeight=0;perimeter=none;html=1;whiteSpace=wrap;" vertex="1" parent="eYcTT7ywrqwXEYDDCLu7-0">
          <mxGeometry x="5" width="130" height="30" as="geometry" />
        </mxCell>
        <mxCell id="eYcTT7ywrqwXEYDDCLu7-2" value="Directory" style="whiteSpace=wrap;html=1;strokeColor=#FFFFFF;fontColor=#FFFFFF;fillColor=#182E3E;fontSize=16;fontStyle=1" vertex="1" parent="eYcTT7ywrqwXEYDDCLu7-0">
          <mxGeometry x="10" y="40" width="260" height="40" as="geometry" />
        </mxCell>
        <mxCell id="eYcTT7ywrqwXEYDDCLu7-3" value="Files" style="whiteSpace=wrap;html=1;strokeColor=#FFFFFF;fontColor=#FFFFFF;fillColor=#182E3E;fontSize=16;fontStyle=1" vertex="1" parent="eYcTT7ywrqwXEYDDCLu7-0">
          <mxGeometry x="270" y="40" width="60" height="40" as="geometry" />
        </mxCell>
        <mxCell id="eYcTT7ywrqwXEYDDCLu7-4" value="" style="whiteSpace=wrap;html=1;strokeColor=#FFFFFF;fontColor=#FFFFFF;fillColor=#182E3E;" vertex="1" parent="eYcTT7ywrqwXEYDDCLu7-0">
          <mxGeometry x="10" y="80" width="320" height="620" as="geometry" />
        </mxCell>
        <UserObject label="&lt;div style=&quot;font-size: 16px;&quot;&gt;Start processing&lt;/div&gt;" link="data:page/id,f459UlWJwNEQwopyS50J" id="hMaXqVIOh35bpdhoZ0I3-0">
          <mxCell style="whiteSpace=wrap;html=1;strokeColor=#005700;fillColor=#008a00;rounded=1;fontSize=16;fontStyle=1;fontColor=#ffffff;" vertex="1" parent="2y9sZ35G98QOjDsGW6FF-1">
            <mxGeometry x="850" y="160" width="140" height="60" as="geometry" />
          </mxCell>
        </UserObject>
      </root>
    </mxGraphModel>
  </diagram>
  <diagram name="ProcessingModulePageBoxCropper" id="h1OTeUkrut5GULpc_ItQ">
    <mxGraphModel dx="2074" dy="1106" grid="1" gridSize="10" guides="1" tooltips="1" connect="1" arrows="1" fold="1" page="1" pageScale="1" pageWidth="1600" pageHeight="900" math="0" shadow="0">
      <root>
        <mxCell id="LH34y7n98yYIbcsCo41Y-0" />
        <mxCell id="LH34y7n98yYIbcsCo41Y-1" parent="LH34y7n98yYIbcsCo41Y-0" />
        <UserObject label="&lt;div&gt;DrawerCollector&lt;/div&gt;&lt;div&gt;&lt;br&gt;&lt;br&gt;&lt;/div&gt;" link="data:page/id,4QHCHEwzM7NgPZoShcnq" id="LH34y7n98yYIbcsCo41Y-2">
          <mxCell style="strokeWidth=1;shadow=0;dashed=0;align=center;html=1;shape=mxgraph.mockup.containers.window;align=left;verticalAlign=top;spacingLeft=8;strokeColor2=#008cff;strokeColor3=#c4c4c4;fontColor=#FFFFFF;mainText=;fontSize=17;labelBackgroundColor=none;whiteSpace=wrap;strokeColor=#FFFFFF;fillColor=#182E3E;" vertex="1" parent="LH34y7n98yYIbcsCo41Y-1">
            <mxGeometry x="80" y="40" width="1400" height="790" as="geometry" />
          </mxCell>
        </UserObject>
        <UserObject label="" link="data:page/id,bpctJW46AZVkk8_T5PjK" id="LH34y7n98yYIbcsCo41Y-3">
          <mxCell style="shape=mxgraph.mockup.containers.marginRect;rectMarginTop=10;strokeColor=#70888f;strokeWidth=1;dashed=0;rounded=1;arcSize=5;recursiveResize=0;html=1;whiteSpace=wrap;fontColor=#FFFFFF;fillColor=#182E3E;" vertex="1" parent="LH34y7n98yYIbcsCo41Y-1">
            <mxGeometry x="110" y="90" width="180" height="200" as="geometry" />
          </mxCell>
        </UserObject>
        <mxCell id="LH34y7n98yYIbcsCo41Y-4" value="&lt;div&gt;Image Loader&lt;/div&gt;" style="shape=rect;strokeColor=none;fillColor=#008cff;strokeWidth=1;dashed=0;rounded=1;arcSize=20;fontColor=#ffffff;fontSize=17;spacing=2;spacingTop=-2;align=left;autosize=1;spacingLeft=4;resizeWidth=0;resizeHeight=0;perimeter=none;html=1;whiteSpace=wrap;" vertex="1" parent="LH34y7n98yYIbcsCo41Y-3">
          <mxGeometry x="5" width="130" height="30" as="geometry" />
        </mxCell>
        <UserObject label="&lt;font style=&quot;font-size: 32px;&quot;&gt;&lt;b&gt;+&lt;/b&gt;&lt;/font&gt;" link="data:page/id,UpVtdRNt34tTqxoJonI-" id="LH34y7n98yYIbcsCo41Y-5">
          <mxCell style="ellipse;whiteSpace=wrap;html=1;strokeColor=#FFFFFF;fillColor=#182E3E;labelBackgroundColor=none;fontColor=#FFFFFF;shadow=0;aspect=fixed;" vertex="1" parent="LH34y7n98yYIbcsCo41Y-3">
            <mxGeometry x="60" y="70" width="60" height="60" as="geometry" />
          </mxCell>
        </UserObject>
        <mxCell id="LH34y7n98yYIbcsCo41Y-6" value="&lt;div style=&quot;font-size: 16px;&quot;&gt;Add directory&lt;br style=&quot;font-size: 16px;&quot;&gt;&lt;/div&gt;" style="text;html=1;strokeColor=none;fillColor=none;align=center;verticalAlign=middle;whiteSpace=wrap;rounded=0;fontColor=#FFFFFF;fontStyle=1;fontSize=16;" vertex="1" parent="LH34y7n98yYIbcsCo41Y-3">
          <mxGeometry x="2.5" y="140" width="175" height="30" as="geometry" />
        </mxCell>
        <mxCell id="LH34y7n98yYIbcsCo41Y-7" value="" style="shape=mxgraph.mockup.containers.marginRect;rectMarginTop=10;strokeColor=#666666;strokeWidth=1;dashed=0;rounded=1;arcSize=5;recursiveResize=0;html=1;whiteSpace=wrap;fontColor=#FFFFFF;fillColor=#182E3E;" vertex="1" parent="LH34y7n98yYIbcsCo41Y-1">
          <mxGeometry x="1120" y="80" width="340" height="720" as="geometry" />
        </mxCell>
        <mxCell id="LH34y7n98yYIbcsCo41Y-8" value="BoxCropper Configuration" style="shape=rect;strokeColor=none;fillColor=#008cff;strokeWidth=1;dashed=0;rounded=1;arcSize=20;fontColor=#ffffff;fontSize=17;spacing=2;spacingTop=-2;align=left;autosize=1;spacingLeft=4;resizeWidth=0;resizeHeight=0;perimeter=none;html=1;whiteSpace=wrap;" vertex="1" parent="LH34y7n98yYIbcsCo41Y-7">
          <mxGeometry x="5" width="220" height="30" as="geometry" />
        </mxCell>
        <mxCell id="LH34y7n98yYIbcsCo41Y-9" value="Parameter" style="whiteSpace=wrap;html=1;strokeColor=#FFFFFF;fontColor=#FFFFFF;fillColor=#182E3E;fontSize=16;fontStyle=1" vertex="1" parent="LH34y7n98yYIbcsCo41Y-7">
          <mxGeometry x="10" y="40" width="170" height="40" as="geometry" />
        </mxCell>
        <mxCell id="LH34y7n98yYIbcsCo41Y-10" value="Value" style="whiteSpace=wrap;html=1;strokeColor=#FFFFFF;fontColor=#FFFFFF;fillColor=#182E3E;fontSize=16;fontStyle=1" vertex="1" parent="LH34y7n98yYIbcsCo41Y-7">
          <mxGeometry x="180" y="40" width="150" height="40" as="geometry" />
        </mxCell>
        <mxCell id="LH34y7n98yYIbcsCo41Y-11" value="" style="whiteSpace=wrap;html=1;strokeColor=#FFFFFF;fontColor=#FFFFFF;fillColor=#182E3E;" vertex="1" parent="LH34y7n98yYIbcsCo41Y-7">
          <mxGeometry x="10" y="80" width="320" height="620" as="geometry" />
        </mxCell>
        <mxCell id="LH34y7n98yYIbcsCo41Y-12" value="" style="whiteSpace=wrap;html=1;strokeColor=#FFFFFF;fontColor=#FFFFFF;fillColor=#182E3E;fontSize=16;fontStyle=1" vertex="1" parent="LH34y7n98yYIbcsCo41Y-7">
          <mxGeometry x="10" y="90" width="170" height="40" as="geometry" />
        </mxCell>
        <mxCell id="LH34y7n98yYIbcsCo41Y-13" value="" style="whiteSpace=wrap;html=1;strokeColor=#FFFFFF;fontColor=#FFFFFF;fillColor=#182E3E;fontSize=16;fontStyle=1" vertex="1" parent="LH34y7n98yYIbcsCo41Y-7">
          <mxGeometry x="180" y="90" width="150" height="40" as="geometry" />
        </mxCell>
        <mxCell id="LH34y7n98yYIbcsCo41Y-14" value="" style="html=1;shadow=0;dashed=0;align=center;verticalAlign=middle;shape=mxgraph.arrows2.arrow;dy=0;dx=30;notch=30;strokeColor=#FFFFFF;fontColor=#FFFFFF;fillColor=#182E3E;" vertex="1" parent="LH34y7n98yYIbcsCo41Y-1">
          <mxGeometry x="300" y="170" width="100" height="60" as="geometry" />
        </mxCell>
        <UserObject label="" id="LH34y7n98yYIbcsCo41Y-15">
          <mxCell style="shape=mxgraph.mockup.containers.marginRect;rectMarginTop=10;strokeColor=#666666;strokeWidth=5;dashed=0;rounded=1;arcSize=5;recursiveResize=0;html=1;whiteSpace=wrap;fontColor=#FFFFFF;fillColor=#182E3E;fontSize=16;fontStyle=1" vertex="1" parent="LH34y7n98yYIbcsCo41Y-1">
            <mxGeometry x="410" y="90" width="180" height="200" as="geometry" />
          </mxCell>
        </UserObject>
        <mxCell id="LH34y7n98yYIbcsCo41Y-16" value="BoxCropper" style="shape=rect;strokeColor=none;fillColor=#008cff;strokeWidth=1;dashed=0;rounded=1;arcSize=20;fontColor=#ffffff;fontSize=17;spacing=2;spacingTop=-2;align=left;autosize=1;spacingLeft=4;resizeWidth=0;resizeHeight=0;perimeter=none;html=1;whiteSpace=wrap;" vertex="1" parent="LH34y7n98yYIbcsCo41Y-15">
          <mxGeometry x="5" width="120" height="30" as="geometry" />
        </mxCell>
        <UserObject label="&lt;span style=&quot;font-size: 16px;&quot;&gt;X&lt;/span&gt;" link="data:page/id,4QHCHEwzM7NgPZoShcnq" id="6jKXTAs4YnJog77MzmOL-0">
          <mxCell style="ellipse;whiteSpace=wrap;html=1;strokeColor=#C73500;fillColor=none;labelBackgroundColor=none;fontColor=#e64500;shadow=0;aspect=fixed;fontStyle=1;fontSize=16;strokeWidth=3;" vertex="1" parent="LH34y7n98yYIbcsCo41Y-15">
            <mxGeometry x="60" y="80" width="60" height="60" as="geometry" />
          </mxCell>
        </UserObject>
        <mxCell id="LH34y7n98yYIbcsCo41Y-20" value="" style="group" vertex="1" connectable="0" parent="LH34y7n98yYIbcsCo41Y-1">
          <mxGeometry x="692.5" y="160" width="175" height="100" as="geometry" />
        </mxCell>
        <UserObject label="&lt;font style=&quot;font-size: 32px;&quot;&gt;&lt;b&gt;+&lt;/b&gt;&lt;/font&gt;" id="LH34y7n98yYIbcsCo41Y-21">
          <mxCell style="ellipse;whiteSpace=wrap;html=1;strokeColor=#FFFFFF;fillColor=#182E3E;labelBackgroundColor=none;fontColor=#FFFFFF;shadow=0;aspect=fixed;" vertex="1" parent="LH34y7n98yYIbcsCo41Y-20">
            <mxGeometry x="57.5" width="60" height="60" as="geometry" />
          </mxCell>
        </UserObject>
        <mxCell id="LH34y7n98yYIbcsCo41Y-22" value="&lt;div style=&quot;font-size: 16px;&quot;&gt;Add Module&lt;br style=&quot;font-size: 16px;&quot;&gt;&lt;/div&gt;" style="text;html=1;strokeColor=none;fillColor=none;align=center;verticalAlign=middle;whiteSpace=wrap;rounded=0;fontColor=#FFFFFF;fontStyle=1;fontSize=16;" vertex="1" parent="LH34y7n98yYIbcsCo41Y-20">
          <mxGeometry y="70" width="175" height="30" as="geometry" />
        </mxCell>
        <mxCell id="LH34y7n98yYIbcsCo41Y-23" value="" style="html=1;shadow=0;dashed=0;align=center;verticalAlign=middle;shape=mxgraph.arrows2.arrow;dy=0;dx=30;notch=30;strokeColor=#FFFFFF;fontColor=#FFFFFF;fillColor=#182E3E;" vertex="1" parent="LH34y7n98yYIbcsCo41Y-1">
          <mxGeometry x="610" y="170" width="100" height="60" as="geometry" />
        </mxCell>
        <UserObject label="&lt;div style=&quot;font-size: 16px;&quot;&gt;Start processing&lt;/div&gt;" link="data:page/id,f459UlWJwNEQwopyS50J" id="jQPjqoZrzusY_F5-JD_g-0">
          <mxCell style="whiteSpace=wrap;html=1;strokeColor=#005700;fillColor=#008a00;rounded=1;fontSize=16;fontStyle=1;fontColor=#ffffff;" vertex="1" parent="LH34y7n98yYIbcsCo41Y-1">
            <mxGeometry x="850" y="160" width="140" height="60" as="geometry" />
          </mxCell>
        </UserObject>
      </root>
    </mxGraphModel>
  </diagram>
  <diagram name="ProcessingModulePageBoxCropperImageLoaderConfig" id="bpctJW46AZVkk8_T5PjK">
    <mxGraphModel dx="2074" dy="1106" grid="1" gridSize="10" guides="1" tooltips="1" connect="1" arrows="1" fold="1" page="1" pageScale="1" pageWidth="1600" pageHeight="900" math="0" shadow="0">
      <root>
        <mxCell id="xii4YHvP5a1G5WbkQLh7-0" />
        <mxCell id="xii4YHvP5a1G5WbkQLh7-1" parent="xii4YHvP5a1G5WbkQLh7-0" />
        <UserObject label="&lt;div&gt;DrawerCollector&lt;/div&gt;&lt;div&gt;&lt;br&gt;&lt;br&gt;&lt;/div&gt;" link="data:page/id,4QHCHEwzM7NgPZoShcnq" id="xii4YHvP5a1G5WbkQLh7-2">
          <mxCell style="strokeWidth=1;shadow=0;dashed=0;align=center;html=1;shape=mxgraph.mockup.containers.window;align=left;verticalAlign=top;spacingLeft=8;strokeColor2=#008cff;strokeColor3=#c4c4c4;fontColor=#FFFFFF;mainText=;fontSize=17;labelBackgroundColor=none;whiteSpace=wrap;strokeColor=#FFFFFF;fillColor=#182E3E;" vertex="1" parent="xii4YHvP5a1G5WbkQLh7-1">
            <mxGeometry x="80" y="40" width="1400" height="790" as="geometry" />
          </mxCell>
        </UserObject>
        <UserObject label="" link="data:page/id,hgLcFoqbssjTXuBi4_AG" id="xii4YHvP5a1G5WbkQLh7-3">
          <mxCell style="shape=mxgraph.mockup.containers.marginRect;rectMarginTop=10;strokeColor=#70888f;strokeWidth=5;dashed=0;rounded=1;arcSize=5;recursiveResize=0;html=1;whiteSpace=wrap;fontColor=#FFFFFF;fillColor=#182E3E;" vertex="1" parent="xii4YHvP5a1G5WbkQLh7-1">
            <mxGeometry x="110" y="90" width="180" height="200" as="geometry" />
          </mxCell>
        </UserObject>
        <mxCell id="xii4YHvP5a1G5WbkQLh7-4" value="&lt;div&gt;Image Loader&lt;/div&gt;" style="shape=rect;strokeColor=none;fillColor=#008cff;strokeWidth=1;dashed=0;rounded=1;arcSize=20;fontColor=#ffffff;fontSize=17;spacing=2;spacingTop=-2;align=left;autosize=1;spacingLeft=4;resizeWidth=0;resizeHeight=0;perimeter=none;html=1;whiteSpace=wrap;" vertex="1" parent="xii4YHvP5a1G5WbkQLh7-3">
          <mxGeometry x="5" width="130" height="30" as="geometry" />
        </mxCell>
        <UserObject label="&lt;font style=&quot;font-size: 32px;&quot;&gt;&lt;b&gt;+&lt;/b&gt;&lt;/font&gt;" link="data:page/id,UpVtdRNt34tTqxoJonI-" id="xii4YHvP5a1G5WbkQLh7-5">
          <mxCell style="ellipse;whiteSpace=wrap;html=1;strokeColor=#FFFFFF;fillColor=#182E3E;labelBackgroundColor=none;fontColor=#FFFFFF;shadow=0;aspect=fixed;" vertex="1" parent="xii4YHvP5a1G5WbkQLh7-3">
            <mxGeometry x="60" y="70" width="60" height="60" as="geometry" />
          </mxCell>
        </UserObject>
        <mxCell id="xii4YHvP5a1G5WbkQLh7-6" value="&lt;div style=&quot;font-size: 16px;&quot;&gt;Add directory&lt;br style=&quot;font-size: 16px;&quot;&gt;&lt;/div&gt;" style="text;html=1;strokeColor=none;fillColor=none;align=center;verticalAlign=middle;whiteSpace=wrap;rounded=0;fontColor=#FFFFFF;fontStyle=1;fontSize=16;" vertex="1" parent="xii4YHvP5a1G5WbkQLh7-3">
          <mxGeometry x="2.5" y="140" width="175" height="30" as="geometry" />
        </mxCell>
        <mxCell id="xii4YHvP5a1G5WbkQLh7-14" value="" style="html=1;shadow=0;dashed=0;align=center;verticalAlign=middle;shape=mxgraph.arrows2.arrow;dy=0;dx=30;notch=30;strokeColor=#FFFFFF;fontColor=#FFFFFF;fillColor=#182E3E;" vertex="1" parent="xii4YHvP5a1G5WbkQLh7-1">
          <mxGeometry x="300" y="170" width="100" height="60" as="geometry" />
        </mxCell>
        <UserObject label="" link="data:page/id,h1OTeUkrut5GULpc_ItQ" id="xii4YHvP5a1G5WbkQLh7-15">
          <mxCell style="shape=mxgraph.mockup.containers.marginRect;rectMarginTop=10;strokeColor=#666666;strokeWidth=1;dashed=0;rounded=1;arcSize=5;recursiveResize=0;html=1;whiteSpace=wrap;fontColor=#FFFFFF;fillColor=#182E3E;fontSize=16;fontStyle=1" vertex="1" parent="xii4YHvP5a1G5WbkQLh7-1">
            <mxGeometry x="410" y="90" width="180" height="200" as="geometry" />
          </mxCell>
        </UserObject>
        <mxCell id="xii4YHvP5a1G5WbkQLh7-16" value="BoxCropper" style="shape=rect;strokeColor=none;fillColor=#008cff;strokeWidth=1;dashed=0;rounded=1;arcSize=20;fontColor=#ffffff;fontSize=17;spacing=2;spacingTop=-2;align=left;autosize=1;spacingLeft=4;resizeWidth=0;resizeHeight=0;perimeter=none;html=1;whiteSpace=wrap;" vertex="1" parent="xii4YHvP5a1G5WbkQLh7-15">
          <mxGeometry x="5" width="120" height="30" as="geometry" />
        </mxCell>
        <UserObject label="&lt;span style=&quot;font-size: 16px;&quot;&gt;X&lt;/span&gt;" link="data:page/id,4QHCHEwzM7NgPZoShcnq" id="xii4YHvP5a1G5WbkQLh7-17">
          <mxCell style="ellipse;whiteSpace=wrap;html=1;strokeColor=#C73500;fillColor=none;labelBackgroundColor=none;fontColor=#e64500;shadow=0;aspect=fixed;fontStyle=1;fontSize=16;strokeWidth=3;" vertex="1" parent="xii4YHvP5a1G5WbkQLh7-15">
            <mxGeometry x="60" y="70" width="60" height="60" as="geometry" />
          </mxCell>
        </UserObject>
        <mxCell id="xii4YHvP5a1G5WbkQLh7-18" value="" style="group" vertex="1" connectable="0" parent="xii4YHvP5a1G5WbkQLh7-1">
          <mxGeometry x="692.5" y="160" width="175" height="100" as="geometry" />
        </mxCell>
        <UserObject label="&lt;font style=&quot;font-size: 32px;&quot;&gt;&lt;b&gt;+&lt;/b&gt;&lt;/font&gt;" id="xii4YHvP5a1G5WbkQLh7-19">
          <mxCell style="ellipse;whiteSpace=wrap;html=1;strokeColor=#FFFFFF;fillColor=#182E3E;labelBackgroundColor=none;fontColor=#FFFFFF;shadow=0;aspect=fixed;" vertex="1" parent="xii4YHvP5a1G5WbkQLh7-18">
            <mxGeometry x="57.5" width="60" height="60" as="geometry" />
          </mxCell>
        </UserObject>
        <mxCell id="xii4YHvP5a1G5WbkQLh7-20" value="&lt;div style=&quot;font-size: 16px;&quot;&gt;Add Module&lt;br style=&quot;font-size: 16px;&quot;&gt;&lt;/div&gt;" style="text;html=1;strokeColor=none;fillColor=none;align=center;verticalAlign=middle;whiteSpace=wrap;rounded=0;fontColor=#FFFFFF;fontStyle=1;fontSize=16;" vertex="1" parent="xii4YHvP5a1G5WbkQLh7-18">
          <mxGeometry y="70" width="175" height="30" as="geometry" />
        </mxCell>
        <mxCell id="xii4YHvP5a1G5WbkQLh7-21" value="" style="html=1;shadow=0;dashed=0;align=center;verticalAlign=middle;shape=mxgraph.arrows2.arrow;dy=0;dx=30;notch=30;strokeColor=#FFFFFF;fontColor=#FFFFFF;fillColor=#182E3E;" vertex="1" parent="xii4YHvP5a1G5WbkQLh7-1">
          <mxGeometry x="610" y="170" width="100" height="60" as="geometry" />
        </mxCell>
        <mxCell id="8Nd9hIsrP9Rz0dqWqF9T-0" value="" style="shape=mxgraph.mockup.containers.marginRect;rectMarginTop=10;strokeColor=#666666;strokeWidth=1;dashed=0;rounded=1;arcSize=5;recursiveResize=0;html=1;whiteSpace=wrap;fontColor=#FFFFFF;fillColor=#182E3E;" vertex="1" parent="xii4YHvP5a1G5WbkQLh7-1">
          <mxGeometry x="1120" y="80" width="340" height="720" as="geometry" />
        </mxCell>
        <mxCell id="8Nd9hIsrP9Rz0dqWqF9T-1" value="Image Loader" style="shape=rect;strokeColor=none;fillColor=#008cff;strokeWidth=1;dashed=0;rounded=1;arcSize=20;fontColor=#ffffff;fontSize=17;spacing=2;spacingTop=-2;align=left;autosize=1;spacingLeft=4;resizeWidth=0;resizeHeight=0;perimeter=none;html=1;whiteSpace=wrap;" vertex="1" parent="8Nd9hIsrP9Rz0dqWqF9T-0">
          <mxGeometry x="5" width="130" height="30" as="geometry" />
        </mxCell>
        <mxCell id="8Nd9hIsrP9Rz0dqWqF9T-2" value="Directory" style="whiteSpace=wrap;html=1;strokeColor=#FFFFFF;fontColor=#FFFFFF;fillColor=#182E3E;fontSize=16;fontStyle=1" vertex="1" parent="8Nd9hIsrP9Rz0dqWqF9T-0">
          <mxGeometry x="10" y="40" width="260" height="40" as="geometry" />
        </mxCell>
        <mxCell id="8Nd9hIsrP9Rz0dqWqF9T-3" value="Files" style="whiteSpace=wrap;html=1;strokeColor=#FFFFFF;fontColor=#FFFFFF;fillColor=#182E3E;fontSize=16;fontStyle=1" vertex="1" parent="8Nd9hIsrP9Rz0dqWqF9T-0">
          <mxGeometry x="270" y="40" width="60" height="40" as="geometry" />
        </mxCell>
        <mxCell id="8Nd9hIsrP9Rz0dqWqF9T-4" value="" style="whiteSpace=wrap;html=1;strokeColor=#FFFFFF;fontColor=#FFFFFF;fillColor=#182E3E;" vertex="1" parent="8Nd9hIsrP9Rz0dqWqF9T-0">
          <mxGeometry x="10" y="80" width="320" height="620" as="geometry" />
        </mxCell>
        <UserObject label="&lt;div style=&quot;font-size: 16px;&quot;&gt;Start processing&lt;/div&gt;" link="data:page/id,f459UlWJwNEQwopyS50J" id="JsV0PLGgfiAQmNiqITqo-0">
          <mxCell style="whiteSpace=wrap;html=1;strokeColor=#005700;fillColor=#008a00;rounded=1;fontSize=16;fontStyle=1;fontColor=#ffffff;" vertex="1" parent="xii4YHvP5a1G5WbkQLh7-1">
            <mxGeometry x="850" y="160" width="140" height="60" as="geometry" />
          </mxCell>
        </UserObject>
      </root>
    </mxGraphModel>
  </diagram>
  <diagram name="ProcessingModuleHistogrammEqalization" id="ks5ivqE2zZKqK-9PlKzZ">
    <mxGraphModel dx="2074" dy="1106" grid="1" gridSize="10" guides="1" tooltips="1" connect="1" arrows="1" fold="1" page="1" pageScale="1" pageWidth="1600" pageHeight="900" math="0" shadow="0">
      <root>
        <mxCell id="LmctU1nmAqW1x9bdlQpk-0" />
        <mxCell id="LmctU1nmAqW1x9bdlQpk-1" parent="LmctU1nmAqW1x9bdlQpk-0" />
        <UserObject label="&lt;div&gt;DrawerCollector&lt;/div&gt;&lt;div&gt;&lt;br&gt;&lt;br&gt;&lt;/div&gt;" link="data:page/id,4QHCHEwzM7NgPZoShcnq" id="LmctU1nmAqW1x9bdlQpk-2">
          <mxCell style="strokeWidth=1;shadow=0;dashed=0;align=center;html=1;shape=mxgraph.mockup.containers.window;align=left;verticalAlign=top;spacingLeft=8;strokeColor2=#008cff;strokeColor3=#c4c4c4;fontColor=#FFFFFF;mainText=;fontSize=17;labelBackgroundColor=none;whiteSpace=wrap;strokeColor=#FFFFFF;fillColor=#182E3E;" vertex="1" parent="LmctU1nmAqW1x9bdlQpk-1">
            <mxGeometry x="80" y="40" width="1400" height="790" as="geometry" />
          </mxCell>
        </UserObject>
        <UserObject label="" link="data:page/id,2IVKC2ct4baWN2jTUV-0" id="LmctU1nmAqW1x9bdlQpk-3">
          <mxCell style="shape=mxgraph.mockup.containers.marginRect;rectMarginTop=10;strokeColor=#70888f;strokeWidth=1;dashed=0;rounded=1;arcSize=5;recursiveResize=0;html=1;whiteSpace=wrap;fontColor=#FFFFFF;fillColor=#182E3E;" vertex="1" parent="LmctU1nmAqW1x9bdlQpk-1">
            <mxGeometry x="110" y="90" width="180" height="200" as="geometry" />
          </mxCell>
        </UserObject>
        <mxCell id="LmctU1nmAqW1x9bdlQpk-4" value="&lt;div&gt;Image Loader&lt;/div&gt;" style="shape=rect;strokeColor=none;fillColor=#008cff;strokeWidth=1;dashed=0;rounded=1;arcSize=20;fontColor=#ffffff;fontSize=17;spacing=2;spacingTop=-2;align=left;autosize=1;spacingLeft=4;resizeWidth=0;resizeHeight=0;perimeter=none;html=1;whiteSpace=wrap;" vertex="1" parent="LmctU1nmAqW1x9bdlQpk-3">
          <mxGeometry x="5" width="130" height="30" as="geometry" />
        </mxCell>
        <UserObject label="&lt;font style=&quot;font-size: 32px;&quot;&gt;&lt;b&gt;+&lt;/b&gt;&lt;/font&gt;" link="data:page/id,UpVtdRNt34tTqxoJonI-" id="LmctU1nmAqW1x9bdlQpk-5">
          <mxCell style="ellipse;whiteSpace=wrap;html=1;strokeColor=#FFFFFF;fillColor=#182E3E;labelBackgroundColor=none;fontColor=#FFFFFF;shadow=0;aspect=fixed;" vertex="1" parent="LmctU1nmAqW1x9bdlQpk-3">
            <mxGeometry x="60" y="70" width="60" height="60" as="geometry" />
          </mxCell>
        </UserObject>
        <mxCell id="LmctU1nmAqW1x9bdlQpk-6" value="&lt;div style=&quot;font-size: 16px;&quot;&gt;Add directory&lt;br style=&quot;font-size: 16px;&quot;&gt;&lt;/div&gt;" style="text;html=1;strokeColor=none;fillColor=none;align=center;verticalAlign=middle;whiteSpace=wrap;rounded=0;fontColor=#FFFFFF;fontStyle=1;fontSize=16;" vertex="1" parent="LmctU1nmAqW1x9bdlQpk-3">
          <mxGeometry x="2.5" y="140" width="175" height="30" as="geometry" />
        </mxCell>
        <mxCell id="LmctU1nmAqW1x9bdlQpk-7" value="" style="shape=mxgraph.mockup.containers.marginRect;rectMarginTop=10;strokeColor=#666666;strokeWidth=1;dashed=0;rounded=1;arcSize=5;recursiveResize=0;html=1;whiteSpace=wrap;fontColor=#FFFFFF;fillColor=#182E3E;" vertex="1" parent="LmctU1nmAqW1x9bdlQpk-1">
          <mxGeometry x="1120" y="80" width="340" height="720" as="geometry" />
        </mxCell>
        <mxCell id="LmctU1nmAqW1x9bdlQpk-8" value="HistogrammEQ Configuration" style="shape=rect;strokeColor=none;fillColor=#008cff;strokeWidth=1;dashed=0;rounded=1;arcSize=20;fontColor=#ffffff;fontSize=17;spacing=2;spacingTop=-2;align=left;autosize=1;spacingLeft=4;resizeWidth=0;resizeHeight=0;perimeter=none;html=1;whiteSpace=wrap;" vertex="1" parent="LmctU1nmAqW1x9bdlQpk-7">
          <mxGeometry x="5" width="250" height="30" as="geometry" />
        </mxCell>
        <mxCell id="LmctU1nmAqW1x9bdlQpk-9" value="Parameter" style="whiteSpace=wrap;html=1;strokeColor=#FFFFFF;fontColor=#FFFFFF;fillColor=#182E3E;fontSize=16;fontStyle=1" vertex="1" parent="LmctU1nmAqW1x9bdlQpk-7">
          <mxGeometry x="10" y="40" width="170" height="40" as="geometry" />
        </mxCell>
        <mxCell id="LmctU1nmAqW1x9bdlQpk-10" value="Value" style="whiteSpace=wrap;html=1;strokeColor=#FFFFFF;fontColor=#FFFFFF;fillColor=#182E3E;fontSize=16;fontStyle=1" vertex="1" parent="LmctU1nmAqW1x9bdlQpk-7">
          <mxGeometry x="180" y="40" width="150" height="40" as="geometry" />
        </mxCell>
        <mxCell id="LmctU1nmAqW1x9bdlQpk-11" value="" style="whiteSpace=wrap;html=1;strokeColor=#FFFFFF;fontColor=#FFFFFF;fillColor=#182E3E;" vertex="1" parent="LmctU1nmAqW1x9bdlQpk-7">
          <mxGeometry x="10" y="80" width="320" height="620" as="geometry" />
        </mxCell>
        <mxCell id="LmctU1nmAqW1x9bdlQpk-12" value="Tile Size" style="whiteSpace=wrap;html=1;strokeColor=#FFFFFF;fontColor=#FFFFFF;fillColor=#182E3E;fontSize=16;fontStyle=1" vertex="1" parent="LmctU1nmAqW1x9bdlQpk-7">
          <mxGeometry x="10" y="90" width="170" height="40" as="geometry" />
        </mxCell>
        <mxCell id="LmctU1nmAqW1x9bdlQpk-13" value="20" style="whiteSpace=wrap;html=1;strokeColor=#FFFFFF;fontColor=#FFFFFF;fillColor=#182E3E;fontSize=16;fontStyle=1" vertex="1" parent="LmctU1nmAqW1x9bdlQpk-7">
          <mxGeometry x="180" y="90" width="150" height="40" as="geometry" />
        </mxCell>
        <mxCell id="Ng9fcgwztYUBwBWd-VHX-0" value="Clip Limit" style="whiteSpace=wrap;html=1;strokeColor=#FFFFFF;fontColor=#FFFFFF;fillColor=#182E3E;fontSize=16;fontStyle=1" vertex="1" parent="LmctU1nmAqW1x9bdlQpk-7">
          <mxGeometry x="10" y="130" width="170" height="40" as="geometry" />
        </mxCell>
        <mxCell id="Ng9fcgwztYUBwBWd-VHX-1" value="2" style="whiteSpace=wrap;html=1;strokeColor=#FFFFFF;fontColor=#FFFFFF;fillColor=#182E3E;fontSize=16;fontStyle=1" vertex="1" parent="LmctU1nmAqW1x9bdlQpk-7">
          <mxGeometry x="180" y="130" width="150" height="40" as="geometry" />
        </mxCell>
        <mxCell id="LmctU1nmAqW1x9bdlQpk-14" value="" style="html=1;shadow=0;dashed=0;align=center;verticalAlign=middle;shape=mxgraph.arrows2.arrow;dy=0;dx=30;notch=30;strokeColor=#FFFFFF;fontColor=#FFFFFF;fillColor=#182E3E;" vertex="1" parent="LmctU1nmAqW1x9bdlQpk-1">
          <mxGeometry x="300" y="170" width="100" height="60" as="geometry" />
        </mxCell>
        <UserObject label="" id="LmctU1nmAqW1x9bdlQpk-15">
          <mxCell style="shape=mxgraph.mockup.containers.marginRect;rectMarginTop=10;strokeColor=#666666;strokeWidth=5;dashed=0;rounded=1;arcSize=5;recursiveResize=0;html=1;whiteSpace=wrap;fontColor=#FFFFFF;fillColor=#182E3E;fontSize=16;fontStyle=1" vertex="1" parent="LmctU1nmAqW1x9bdlQpk-1">
            <mxGeometry x="410" y="90" width="180" height="200" as="geometry" />
          </mxCell>
        </UserObject>
        <mxCell id="LmctU1nmAqW1x9bdlQpk-16" value="&lt;div&gt;HistogrammEQ&lt;/div&gt;" style="shape=rect;strokeColor=none;fillColor=#008cff;strokeWidth=1;dashed=0;rounded=1;arcSize=20;fontColor=#ffffff;fontSize=17;spacing=2;spacingTop=-2;align=left;autosize=1;spacingLeft=4;resizeWidth=0;resizeHeight=0;perimeter=none;html=1;whiteSpace=wrap;" vertex="1" parent="LmctU1nmAqW1x9bdlQpk-15">
          <mxGeometry x="5" width="140" height="30" as="geometry" />
        </mxCell>
        <UserObject label="&lt;span style=&quot;font-size: 16px;&quot;&gt;X&lt;/span&gt;" link="data:page/id,4QHCHEwzM7NgPZoShcnq" id="LmctU1nmAqW1x9bdlQpk-17">
          <mxCell style="ellipse;whiteSpace=wrap;html=1;strokeColor=#C73500;fillColor=none;labelBackgroundColor=none;fontColor=#e64500;shadow=0;aspect=fixed;fontStyle=1;fontSize=16;strokeWidth=3;" vertex="1" parent="LmctU1nmAqW1x9bdlQpk-15">
            <mxGeometry x="60" y="70" width="60" height="60" as="geometry" />
          </mxCell>
        </UserObject>
        <mxCell id="LmctU1nmAqW1x9bdlQpk-18" value="" style="group" vertex="1" connectable="0" parent="LmctU1nmAqW1x9bdlQpk-1">
          <mxGeometry x="692.5" y="160" width="175" height="100" as="geometry" />
        </mxCell>
        <UserObject label="&lt;font style=&quot;font-size: 32px;&quot;&gt;&lt;b&gt;+&lt;/b&gt;&lt;/font&gt;" id="LmctU1nmAqW1x9bdlQpk-19">
          <mxCell style="ellipse;whiteSpace=wrap;html=1;strokeColor=#FFFFFF;fillColor=#182E3E;labelBackgroundColor=none;fontColor=#FFFFFF;shadow=0;aspect=fixed;" vertex="1" parent="LmctU1nmAqW1x9bdlQpk-18">
            <mxGeometry x="57.5" width="60" height="60" as="geometry" />
          </mxCell>
        </UserObject>
        <mxCell id="LmctU1nmAqW1x9bdlQpk-20" value="&lt;div style=&quot;font-size: 16px;&quot;&gt;Add Module&lt;br style=&quot;font-size: 16px;&quot;&gt;&lt;/div&gt;" style="text;html=1;strokeColor=none;fillColor=none;align=center;verticalAlign=middle;whiteSpace=wrap;rounded=0;fontColor=#FFFFFF;fontStyle=1;fontSize=16;" vertex="1" parent="LmctU1nmAqW1x9bdlQpk-18">
          <mxGeometry y="70" width="175" height="30" as="geometry" />
        </mxCell>
        <mxCell id="LmctU1nmAqW1x9bdlQpk-21" value="" style="html=1;shadow=0;dashed=0;align=center;verticalAlign=middle;shape=mxgraph.arrows2.arrow;dy=0;dx=30;notch=30;strokeColor=#FFFFFF;fontColor=#FFFFFF;fillColor=#182E3E;" vertex="1" parent="LmctU1nmAqW1x9bdlQpk-1">
          <mxGeometry x="610" y="170" width="100" height="60" as="geometry" />
        </mxCell>
        <UserObject label="&lt;div style=&quot;font-size: 16px;&quot;&gt;Start processing&lt;/div&gt;" link="data:page/id,f459UlWJwNEQwopyS50J" id="07eMAYCnr0FWTZZmZdmb-0">
          <mxCell style="whiteSpace=wrap;html=1;strokeColor=#005700;fillColor=#008a00;rounded=1;fontSize=16;fontStyle=1;fontColor=#ffffff;" vertex="1" parent="LmctU1nmAqW1x9bdlQpk-1">
            <mxGeometry x="850" y="160" width="140" height="60" as="geometry" />
          </mxCell>
        </UserObject>
      </root>
    </mxGraphModel>
  </diagram>
  <diagram name="ProcessingModuleHistogrammEqalizationImageLoaderCfg" id="2IVKC2ct4baWN2jTUV-0">
    <mxGraphModel dx="2074" dy="1106" grid="1" gridSize="10" guides="1" tooltips="1" connect="1" arrows="1" fold="1" page="1" pageScale="1" pageWidth="1600" pageHeight="900" math="0" shadow="0">
      <root>
        <mxCell id="BnWQ_znuA74kfRmP-5hX-0" />
        <mxCell id="BnWQ_znuA74kfRmP-5hX-1" parent="BnWQ_znuA74kfRmP-5hX-0" />
        <UserObject label="&lt;div&gt;DrawerCollector&lt;/div&gt;&lt;div&gt;&lt;br&gt;&lt;br&gt;&lt;/div&gt;" link="data:page/id,4QHCHEwzM7NgPZoShcnq" id="BnWQ_znuA74kfRmP-5hX-2">
          <mxCell style="strokeWidth=1;shadow=0;dashed=0;align=center;html=1;shape=mxgraph.mockup.containers.window;align=left;verticalAlign=top;spacingLeft=8;strokeColor2=#008cff;strokeColor3=#c4c4c4;fontColor=#FFFFFF;mainText=;fontSize=17;labelBackgroundColor=none;whiteSpace=wrap;strokeColor=#FFFFFF;fillColor=#182E3E;" vertex="1" parent="BnWQ_znuA74kfRmP-5hX-1">
            <mxGeometry x="80" y="40" width="1400" height="790" as="geometry" />
          </mxCell>
        </UserObject>
        <UserObject label="" link="data:page/id,hgLcFoqbssjTXuBi4_AG" id="BnWQ_znuA74kfRmP-5hX-3">
          <mxCell style="shape=mxgraph.mockup.containers.marginRect;rectMarginTop=10;strokeColor=#70888f;strokeWidth=5;dashed=0;rounded=1;arcSize=5;recursiveResize=0;html=1;whiteSpace=wrap;fontColor=#FFFFFF;fillColor=#182E3E;" vertex="1" parent="BnWQ_znuA74kfRmP-5hX-1">
            <mxGeometry x="110" y="90" width="180" height="200" as="geometry" />
          </mxCell>
        </UserObject>
        <mxCell id="BnWQ_znuA74kfRmP-5hX-4" value="&lt;div&gt;Image Loader&lt;/div&gt;" style="shape=rect;strokeColor=none;fillColor=#008cff;strokeWidth=1;dashed=0;rounded=1;arcSize=20;fontColor=#ffffff;fontSize=17;spacing=2;spacingTop=-2;align=left;autosize=1;spacingLeft=4;resizeWidth=0;resizeHeight=0;perimeter=none;html=1;whiteSpace=wrap;" vertex="1" parent="BnWQ_znuA74kfRmP-5hX-3">
          <mxGeometry x="5" width="130" height="30" as="geometry" />
        </mxCell>
        <UserObject label="&lt;font style=&quot;font-size: 32px;&quot;&gt;&lt;b&gt;+&lt;/b&gt;&lt;/font&gt;" link="data:page/id,UpVtdRNt34tTqxoJonI-" id="BnWQ_znuA74kfRmP-5hX-5">
          <mxCell style="ellipse;whiteSpace=wrap;html=1;strokeColor=#FFFFFF;fillColor=#182E3E;labelBackgroundColor=none;fontColor=#FFFFFF;shadow=0;aspect=fixed;" vertex="1" parent="BnWQ_znuA74kfRmP-5hX-3">
            <mxGeometry x="60" y="70" width="60" height="60" as="geometry" />
          </mxCell>
        </UserObject>
        <mxCell id="BnWQ_znuA74kfRmP-5hX-6" value="&lt;div style=&quot;font-size: 16px;&quot;&gt;Add directory&lt;br style=&quot;font-size: 16px;&quot;&gt;&lt;/div&gt;" style="text;html=1;strokeColor=none;fillColor=none;align=center;verticalAlign=middle;whiteSpace=wrap;rounded=0;fontColor=#FFFFFF;fontStyle=1;fontSize=16;" vertex="1" parent="BnWQ_znuA74kfRmP-5hX-3">
          <mxGeometry x="2.5" y="140" width="175" height="30" as="geometry" />
        </mxCell>
        <mxCell id="BnWQ_znuA74kfRmP-5hX-16" value="" style="html=1;shadow=0;dashed=0;align=center;verticalAlign=middle;shape=mxgraph.arrows2.arrow;dy=0;dx=30;notch=30;strokeColor=#FFFFFF;fontColor=#FFFFFF;fillColor=#182E3E;" vertex="1" parent="BnWQ_znuA74kfRmP-5hX-1">
          <mxGeometry x="300" y="170" width="100" height="60" as="geometry" />
        </mxCell>
        <UserObject label="" link="data:page/id,ks5ivqE2zZKqK-9PlKzZ" id="BnWQ_znuA74kfRmP-5hX-17">
          <mxCell style="shape=mxgraph.mockup.containers.marginRect;rectMarginTop=10;strokeColor=#666666;strokeWidth=1;dashed=0;rounded=1;arcSize=5;recursiveResize=0;html=1;whiteSpace=wrap;fontColor=#FFFFFF;fillColor=#182E3E;fontSize=16;fontStyle=1" vertex="1" parent="BnWQ_znuA74kfRmP-5hX-1">
            <mxGeometry x="410" y="90" width="180" height="200" as="geometry" />
          </mxCell>
        </UserObject>
        <mxCell id="BnWQ_znuA74kfRmP-5hX-18" value="&lt;div&gt;HistogrammEQ&lt;/div&gt;" style="shape=rect;strokeColor=none;fillColor=#008cff;strokeWidth=1;dashed=0;rounded=1;arcSize=20;fontColor=#ffffff;fontSize=17;spacing=2;spacingTop=-2;align=left;autosize=1;spacingLeft=4;resizeWidth=0;resizeHeight=0;perimeter=none;html=1;whiteSpace=wrap;" vertex="1" parent="BnWQ_znuA74kfRmP-5hX-17">
          <mxGeometry x="5" width="140" height="30" as="geometry" />
        </mxCell>
        <UserObject label="&lt;span style=&quot;font-size: 16px;&quot;&gt;X&lt;/span&gt;" link="data:page/id,4QHCHEwzM7NgPZoShcnq" id="BnWQ_znuA74kfRmP-5hX-19">
          <mxCell style="ellipse;whiteSpace=wrap;html=1;strokeColor=#C73500;fillColor=none;labelBackgroundColor=none;fontColor=#e64500;shadow=0;aspect=fixed;fontStyle=1;fontSize=16;strokeWidth=3;" vertex="1" parent="BnWQ_znuA74kfRmP-5hX-17">
            <mxGeometry x="60" y="70" width="60" height="60" as="geometry" />
          </mxCell>
        </UserObject>
        <mxCell id="BnWQ_znuA74kfRmP-5hX-20" value="" style="group" vertex="1" connectable="0" parent="BnWQ_znuA74kfRmP-5hX-1">
          <mxGeometry x="692.5" y="160" width="175" height="100" as="geometry" />
        </mxCell>
        <UserObject label="&lt;font style=&quot;font-size: 32px;&quot;&gt;&lt;b&gt;+&lt;/b&gt;&lt;/font&gt;" id="BnWQ_znuA74kfRmP-5hX-21">
          <mxCell style="ellipse;whiteSpace=wrap;html=1;strokeColor=#FFFFFF;fillColor=#182E3E;labelBackgroundColor=none;fontColor=#FFFFFF;shadow=0;aspect=fixed;" vertex="1" parent="BnWQ_znuA74kfRmP-5hX-20">
            <mxGeometry x="57.5" width="60" height="60" as="geometry" />
          </mxCell>
        </UserObject>
        <mxCell id="BnWQ_znuA74kfRmP-5hX-22" value="&lt;div style=&quot;font-size: 16px;&quot;&gt;Add Module&lt;br style=&quot;font-size: 16px;&quot;&gt;&lt;/div&gt;" style="text;html=1;strokeColor=none;fillColor=none;align=center;verticalAlign=middle;whiteSpace=wrap;rounded=0;fontColor=#FFFFFF;fontStyle=1;fontSize=16;" vertex="1" parent="BnWQ_znuA74kfRmP-5hX-20">
          <mxGeometry y="70" width="175" height="30" as="geometry" />
        </mxCell>
        <mxCell id="BnWQ_znuA74kfRmP-5hX-23" value="" style="html=1;shadow=0;dashed=0;align=center;verticalAlign=middle;shape=mxgraph.arrows2.arrow;dy=0;dx=30;notch=30;strokeColor=#FFFFFF;fontColor=#FFFFFF;fillColor=#182E3E;" vertex="1" parent="BnWQ_znuA74kfRmP-5hX-1">
          <mxGeometry x="610" y="170" width="100" height="60" as="geometry" />
        </mxCell>
        <mxCell id="C7HJlGXxX8ApUYCzJ-7Z-0" value="" style="shape=mxgraph.mockup.containers.marginRect;rectMarginTop=10;strokeColor=#666666;strokeWidth=1;dashed=0;rounded=1;arcSize=5;recursiveResize=0;html=1;whiteSpace=wrap;fontColor=#FFFFFF;fillColor=#182E3E;" vertex="1" parent="BnWQ_znuA74kfRmP-5hX-1">
          <mxGeometry x="1120" y="80" width="340" height="720" as="geometry" />
        </mxCell>
        <mxCell id="C7HJlGXxX8ApUYCzJ-7Z-1" value="Image Loader" style="shape=rect;strokeColor=none;fillColor=#008cff;strokeWidth=1;dashed=0;rounded=1;arcSize=20;fontColor=#ffffff;fontSize=17;spacing=2;spacingTop=-2;align=left;autosize=1;spacingLeft=4;resizeWidth=0;resizeHeight=0;perimeter=none;html=1;whiteSpace=wrap;" vertex="1" parent="C7HJlGXxX8ApUYCzJ-7Z-0">
          <mxGeometry x="5" width="130" height="30" as="geometry" />
        </mxCell>
        <mxCell id="C7HJlGXxX8ApUYCzJ-7Z-2" value="Directory" style="whiteSpace=wrap;html=1;strokeColor=#FFFFFF;fontColor=#FFFFFF;fillColor=#182E3E;fontSize=16;fontStyle=1" vertex="1" parent="C7HJlGXxX8ApUYCzJ-7Z-0">
          <mxGeometry x="10" y="40" width="260" height="40" as="geometry" />
        </mxCell>
        <mxCell id="C7HJlGXxX8ApUYCzJ-7Z-3" value="Files" style="whiteSpace=wrap;html=1;strokeColor=#FFFFFF;fontColor=#FFFFFF;fillColor=#182E3E;fontSize=16;fontStyle=1" vertex="1" parent="C7HJlGXxX8ApUYCzJ-7Z-0">
          <mxGeometry x="270" y="40" width="60" height="40" as="geometry" />
        </mxCell>
        <mxCell id="C7HJlGXxX8ApUYCzJ-7Z-4" value="" style="whiteSpace=wrap;html=1;strokeColor=#FFFFFF;fontColor=#FFFFFF;fillColor=#182E3E;" vertex="1" parent="C7HJlGXxX8ApUYCzJ-7Z-0">
          <mxGeometry x="10" y="80" width="320" height="620" as="geometry" />
        </mxCell>
        <UserObject label="&lt;div style=&quot;font-size: 16px;&quot;&gt;Start processing&lt;/div&gt;" link="data:page/id,f459UlWJwNEQwopyS50J" id="2prUhsxj0DB5uVCICA38-0">
          <mxCell style="whiteSpace=wrap;html=1;strokeColor=#005700;fillColor=#008a00;rounded=1;fontSize=16;fontStyle=1;fontColor=#ffffff;" vertex="1" parent="BnWQ_znuA74kfRmP-5hX-1">
            <mxGeometry x="850" y="160" width="140" height="60" as="geometry" />
          </mxCell>
        </UserObject>
      </root>
    </mxGraphModel>
  </diagram>
  <diagram name="ImageLoaderPagePop1" id="L4UjyRlpWGMJG6V8UAFS">
    <mxGraphModel dx="2074" dy="1106" grid="1" gridSize="10" guides="1" tooltips="1" connect="1" arrows="1" fold="1" page="1" pageScale="1" pageWidth="1600" pageHeight="900" math="0" shadow="0">
      <root>
        <mxCell id="LS8I0TFGBgkUEtRNsie5-0" />
        <mxCell id="LS8I0TFGBgkUEtRNsie5-1" parent="LS8I0TFGBgkUEtRNsie5-0" />
        <UserObject label="&lt;div&gt;DrawerCollector&lt;/div&gt;&lt;div&gt;&lt;br&gt;&lt;/div&gt;" link="data:page/id,4QHCHEwzM7NgPZoShcnq" id="LS8I0TFGBgkUEtRNsie5-2">
          <mxCell style="strokeWidth=1;shadow=0;dashed=0;align=center;html=1;shape=mxgraph.mockup.containers.window;align=left;verticalAlign=top;spacingLeft=8;strokeColor2=#008cff;strokeColor3=#c4c4c4;fontColor=#FFFFFF;mainText=;fontSize=17;labelBackgroundColor=none;whiteSpace=wrap;strokeColor=#FFFFFF;fillColor=#182E3E;" vertex="1" parent="LS8I0TFGBgkUEtRNsie5-1">
            <mxGeometry x="80" y="40" width="1400" height="790" as="geometry" />
          </mxCell>
        </UserObject>
        <mxCell id="LS8I0TFGBgkUEtRNsie5-3" value="" style="shape=mxgraph.mockup.containers.marginRect;rectMarginTop=10;strokeColor=#70888f;strokeWidth=5;dashed=0;rounded=1;arcSize=5;recursiveResize=0;html=1;whiteSpace=wrap;fontColor=#FFFFFF;fillColor=#182E3E;" vertex="1" parent="LS8I0TFGBgkUEtRNsie5-1">
          <mxGeometry x="110" y="90" width="180" height="200" as="geometry" />
        </mxCell>
        <mxCell id="LS8I0TFGBgkUEtRNsie5-4" value="&lt;div&gt;Image Loader&lt;/div&gt;" style="shape=rect;strokeColor=none;fillColor=#008cff;strokeWidth=1;dashed=0;rounded=1;arcSize=20;fontColor=#ffffff;fontSize=17;spacing=2;spacingTop=-2;align=left;autosize=1;spacingLeft=4;resizeWidth=0;resizeHeight=0;perimeter=none;html=1;whiteSpace=wrap;" vertex="1" parent="LS8I0TFGBgkUEtRNsie5-3">
          <mxGeometry x="5" width="130" height="30" as="geometry" />
        </mxCell>
        <UserObject label="&lt;font style=&quot;font-size: 32px;&quot;&gt;&lt;b&gt;+&lt;/b&gt;&lt;/font&gt;" link="data:page/id,UpVtdRNt34tTqxoJonI-" id="LS8I0TFGBgkUEtRNsie5-5">
          <mxCell style="ellipse;whiteSpace=wrap;html=1;strokeColor=#FFFFFF;fillColor=#182E3E;labelBackgroundColor=none;fontColor=#FFFFFF;shadow=0;aspect=fixed;" vertex="1" parent="LS8I0TFGBgkUEtRNsie5-3">
            <mxGeometry x="60" y="70" width="60" height="60" as="geometry" />
          </mxCell>
        </UserObject>
        <mxCell id="LS8I0TFGBgkUEtRNsie5-6" value="&lt;div style=&quot;font-size: 16px;&quot;&gt;Add directory&lt;br style=&quot;font-size: 16px;&quot;&gt;&lt;/div&gt;" style="text;html=1;strokeColor=none;fillColor=none;align=center;verticalAlign=middle;whiteSpace=wrap;rounded=0;fontColor=#FFFFFF;fontStyle=1;fontSize=16;" vertex="1" parent="LS8I0TFGBgkUEtRNsie5-3">
          <mxGeometry x="2.5" y="140" width="175" height="30" as="geometry" />
        </mxCell>
        <mxCell id="LS8I0TFGBgkUEtRNsie5-7" value="" style="shape=mxgraph.mockup.containers.marginRect;rectMarginTop=10;strokeColor=#666666;strokeWidth=1;dashed=0;rounded=1;arcSize=5;recursiveResize=0;html=1;whiteSpace=wrap;fontColor=#FFFFFF;fillColor=#182E3E;" vertex="1" parent="LS8I0TFGBgkUEtRNsie5-1">
          <mxGeometry x="1120" y="80" width="340" height="720" as="geometry" />
        </mxCell>
        <mxCell id="LS8I0TFGBgkUEtRNsie5-8" value="Image Loader" style="shape=rect;strokeColor=none;fillColor=#008cff;strokeWidth=1;dashed=0;rounded=1;arcSize=20;fontColor=#ffffff;fontSize=17;spacing=2;spacingTop=-2;align=left;autosize=1;spacingLeft=4;resizeWidth=0;resizeHeight=0;perimeter=none;html=1;whiteSpace=wrap;" vertex="1" parent="LS8I0TFGBgkUEtRNsie5-7">
          <mxGeometry x="5" width="130" height="30" as="geometry" />
        </mxCell>
        <mxCell id="LS8I0TFGBgkUEtRNsie5-9" value="Directory" style="whiteSpace=wrap;html=1;strokeColor=#FFFFFF;fontColor=#FFFFFF;fillColor=#182E3E;fontSize=16;fontStyle=1" vertex="1" parent="LS8I0TFGBgkUEtRNsie5-7">
          <mxGeometry x="10" y="40" width="260" height="40" as="geometry" />
        </mxCell>
        <mxCell id="LS8I0TFGBgkUEtRNsie5-10" value="Files" style="whiteSpace=wrap;html=1;strokeColor=#FFFFFF;fontColor=#FFFFFF;fillColor=#182E3E;fontSize=16;fontStyle=1" vertex="1" parent="LS8I0TFGBgkUEtRNsie5-7">
          <mxGeometry x="270" y="40" width="60" height="40" as="geometry" />
        </mxCell>
        <mxCell id="LS8I0TFGBgkUEtRNsie5-11" value="" style="whiteSpace=wrap;html=1;strokeColor=#FFFFFF;fontColor=#FFFFFF;fillColor=#182E3E;" vertex="1" parent="LS8I0TFGBgkUEtRNsie5-7">
          <mxGeometry x="10" y="80" width="320" height="620" as="geometry" />
        </mxCell>
        <mxCell id="LS8I0TFGBgkUEtRNsie5-12" value="dir/to/images" style="whiteSpace=wrap;html=1;strokeColor=#FFFFFF;fontColor=#FFFFFF;fillColor=#182E3E;fontSize=16;" vertex="1" parent="LS8I0TFGBgkUEtRNsie5-7">
          <mxGeometry x="60" y="90" width="210" height="30" as="geometry" />
        </mxCell>
        <UserObject label="X" link="data:page/id,hgLcFoqbssjTXuBi4_AG" id="LS8I0TFGBgkUEtRNsie5-13">
          <mxCell style="whiteSpace=wrap;html=1;strokeColor=#FFFFFF;fontColor=#000000;fillColor=#fa6800;fontSize=18;fontStyle=1" vertex="1" parent="LS8I0TFGBgkUEtRNsie5-7">
            <mxGeometry x="20" y="90" width="30" height="30" as="geometry" />
          </mxCell>
        </UserObject>
        <mxCell id="LS8I0TFGBgkUEtRNsie5-14" value="258" style="whiteSpace=wrap;html=1;strokeColor=#FFFFFF;fontColor=#FFFFFF;fillColor=#182E3E;fontSize=16;" vertex="1" parent="LS8I0TFGBgkUEtRNsie5-7">
          <mxGeometry x="270" y="90" width="60" height="30" as="geometry" />
        </mxCell>
        <mxCell id="Mlfp9aUfMrSS_lraDaUJ-0" value="" style="html=1;shadow=0;dashed=0;align=center;verticalAlign=middle;shape=mxgraph.arrows2.arrow;dy=0;dx=30;notch=30;strokeColor=#FFFFFF;fontColor=#FFFFFF;fillColor=#182E3E;" vertex="1" parent="LS8I0TFGBgkUEtRNsie5-1">
          <mxGeometry x="300" y="170" width="100" height="60" as="geometry" />
        </mxCell>
        <mxCell id="cnRpYXeN-PJuOhf2FDTX-0" value="" style="group" vertex="1" connectable="0" parent="LS8I0TFGBgkUEtRNsie5-1">
          <mxGeometry x="362.5" y="160" width="175" height="100" as="geometry" />
        </mxCell>
        <UserObject label="&lt;font style=&quot;font-size: 32px;&quot;&gt;&lt;b&gt;+&lt;/b&gt;&lt;/font&gt;" link="data:page/id,DdyOgkGcl3cxmvbCV8Uq" id="cnRpYXeN-PJuOhf2FDTX-1">
          <mxCell style="ellipse;whiteSpace=wrap;html=1;strokeColor=#FFFFFF;fillColor=#182E3E;labelBackgroundColor=none;fontColor=#FFFFFF;shadow=0;aspect=fixed;" vertex="1" parent="cnRpYXeN-PJuOhf2FDTX-0">
            <mxGeometry x="57.5" width="60" height="60" as="geometry" />
          </mxCell>
        </UserObject>
        <mxCell id="cnRpYXeN-PJuOhf2FDTX-2" value="&lt;div style=&quot;font-size: 16px;&quot;&gt;Add Module&lt;br style=&quot;font-size: 16px;&quot;&gt;&lt;/div&gt;" style="text;html=1;strokeColor=none;fillColor=none;align=center;verticalAlign=middle;whiteSpace=wrap;rounded=0;fontColor=#FFFFFF;fontStyle=1;fontSize=16;" vertex="1" parent="cnRpYXeN-PJuOhf2FDTX-0">
          <mxGeometry y="70" width="175" height="30" as="geometry" />
        </mxCell>
      </root>
    </mxGraphModel>
  </diagram>
  <diagram id="UpVtdRNt34tTqxoJonI-" name="LoadImages">
    <mxGraphModel dx="2074" dy="1106" grid="1" gridSize="10" guides="1" tooltips="1" connect="1" arrows="1" fold="1" page="1" pageScale="1" pageWidth="1600" pageHeight="900" math="0" shadow="0">
      <root>
        <mxCell id="0" />
        <mxCell id="1" parent="0" />
        <mxCell id="T7Rag0QeMTrIFnwHBxU2-1" value="" style="shape=image;verticalLabelPosition=bottom;labelBackgroundColor=default;verticalAlign=top;aspect=fixed;imageAspect=0;image=https://www.windowslatest.com/wp-content/uploads/2018/07/File-Picker-in-Windows-10.jpg;" vertex="1" parent="1">
          <mxGeometry x="160" y="50" width="1136.98" height="680" as="geometry" />
        </mxCell>
        <UserObject label="X" link="data:page/id,hgLcFoqbssjTXuBi4_AG" id="CbkHkxZVTPM2tbGyV_iT-1">
          <mxCell style="whiteSpace=wrap;html=1;glass=0;fontSize=18;fontStyle=1;strokeColor=#314354;fillColor=#647687;fontColor=#ffffff;" vertex="1" parent="1">
            <mxGeometry x="1251" y="52" width="45" height="34" as="geometry" />
          </mxCell>
        </UserObject>
        <UserObject label="&lt;div&gt;Add this folder&lt;/div&gt;" link="data:page/id,L4UjyRlpWGMJG6V8UAFS" id="Iifu-EK7bCFycCvdcRt5-1">
          <mxCell style="whiteSpace=wrap;html=1;glass=0;fontSize=18;fontStyle=1;strokeColor=#314354;fillColor=#647687;fontColor=#ffffff;" vertex="1" parent="1">
            <mxGeometry x="920" y="679" width="227" height="35" as="geometry" />
          </mxCell>
        </UserObject>
        <UserObject label="Cancel" link="data:page/id,hgLcFoqbssjTXuBi4_AG" id="Iifu-EK7bCFycCvdcRt5-2">
          <mxCell style="whiteSpace=wrap;html=1;glass=0;fontSize=18;fontStyle=1;strokeColor=#314354;fillColor=#647687;fontColor=#ffffff;" vertex="1" parent="1">
            <mxGeometry x="1160" y="679" width="116" height="35" as="geometry" />
          </mxCell>
        </UserObject>
      </root>
    </mxGraphModel>
  </diagram>
  <diagram name="SaveImages" id="f459UlWJwNEQwopyS50J">
    <mxGraphModel dx="2074" dy="1106" grid="1" gridSize="10" guides="1" tooltips="1" connect="1" arrows="1" fold="1" page="1" pageScale="1" pageWidth="1600" pageHeight="900" math="0" shadow="0">
      <root>
        <mxCell id="iDxvr_9sbCEXh341UMHo-0" />
        <mxCell id="iDxvr_9sbCEXh341UMHo-1" parent="iDxvr_9sbCEXh341UMHo-0" />
        <mxCell id="iDxvr_9sbCEXh341UMHo-2" value="" style="shape=image;verticalLabelPosition=bottom;labelBackgroundColor=default;verticalAlign=top;aspect=fixed;imageAspect=0;image=https://www.windowslatest.com/wp-content/uploads/2018/07/File-Picker-in-Windows-10.jpg;" vertex="1" parent="iDxvr_9sbCEXh341UMHo-1">
          <mxGeometry x="160" y="50" width="1136.98" height="680" as="geometry" />
        </mxCell>
        <UserObject label="X" link="data:page/id,hgLcFoqbssjTXuBi4_AG" id="iDxvr_9sbCEXh341UMHo-3">
          <mxCell style="whiteSpace=wrap;html=1;glass=0;fontSize=18;fontStyle=1;strokeColor=#314354;fillColor=#647687;fontColor=#ffffff;" vertex="1" parent="iDxvr_9sbCEXh341UMHo-1">
            <mxGeometry x="1251" y="52" width="45" height="34" as="geometry" />
          </mxCell>
        </UserObject>
        <UserObject label="Save to this folder" link="data:page/id,FxG1GgXOQTzsYyO-scgQ" id="iDxvr_9sbCEXh341UMHo-4">
          <mxCell style="whiteSpace=wrap;html=1;glass=0;fontSize=18;fontStyle=1;strokeColor=#314354;fillColor=#647687;fontColor=#ffffff;" vertex="1" parent="iDxvr_9sbCEXh341UMHo-1">
            <mxGeometry x="920" y="679" width="227" height="35" as="geometry" />
          </mxCell>
        </UserObject>
        <UserObject label="Cancel" link="data:page/id,hgLcFoqbssjTXuBi4_AG" id="iDxvr_9sbCEXh341UMHo-5">
          <mxCell style="whiteSpace=wrap;html=1;glass=0;fontSize=18;fontStyle=1;strokeColor=#314354;fillColor=#647687;fontColor=#ffffff;" vertex="1" parent="iDxvr_9sbCEXh341UMHo-1">
            <mxGeometry x="1160" y="679" width="116" height="35" as="geometry" />
          </mxCell>
        </UserObject>
      </root>
    </mxGraphModel>
  </diagram>
  <diagram id="DdyOgkGcl3cxmvbCV8Uq" name="AddModulePage">
    <mxGraphModel dx="2074" dy="1106" grid="1" gridSize="10" guides="1" tooltips="1" connect="1" arrows="1" fold="1" page="1" pageScale="1" pageWidth="1600" pageHeight="900" math="0" shadow="0">
      <root>
        <mxCell id="0" />
        <mxCell id="1" parent="0" />
        <mxCell id="hhKOj2p4L4FopTOh9O84-6" value="" style="shape=mxgraph.mockup.containers.marginRect;rectMarginTop=10;strokeColor=#666666;strokeWidth=1;dashed=0;rounded=1;arcSize=5;recursiveResize=0;html=1;whiteSpace=wrap;fontColor=#FFFFFF;fillColor=#182E3E;" vertex="1" parent="1">
          <mxGeometry x="440" y="110" width="410" height="600" as="geometry" />
        </mxCell>
        <mxCell id="hhKOj2p4L4FopTOh9O84-7" value="Modules" style="shape=rect;strokeColor=none;fillColor=#008cff;strokeWidth=1;dashed=0;rounded=1;arcSize=20;fontColor=#ffffff;fontSize=17;spacing=2;spacingTop=-2;align=left;autosize=1;spacingLeft=4;resizeWidth=0;resizeHeight=0;perimeter=none;html=1;whiteSpace=wrap;" vertex="1" parent="hhKOj2p4L4FopTOh9O84-6">
          <mxGeometry x="5" width="90" height="30" as="geometry" />
        </mxCell>
        <UserObject label="Rotation" link="data:page/id,VNy_x9ZEN6lF7U0V-27q" id="hhKOj2p4L4FopTOh9O84-8">
          <mxCell style="whiteSpace=wrap;html=1;strokeColor=#FFFFFF;fontColor=#FFFFFF;fillColor=#182E3E;fontSize=16;fontStyle=1" vertex="1" parent="hhKOj2p4L4FopTOh9O84-6">
            <mxGeometry x="50" y="60" width="310" height="60" as="geometry" />
          </mxCell>
        </UserObject>
        <UserObject label="DrawerBoxCropper" link="data:page/id,h1OTeUkrut5GULpc_ItQ" id="hhKOj2p4L4FopTOh9O84-9">
          <mxCell style="whiteSpace=wrap;html=1;strokeColor=#FFFFFF;fontColor=#FFFFFF;fillColor=#182E3E;fontSize=16;fontStyle=1" vertex="1" parent="hhKOj2p4L4FopTOh9O84-6">
            <mxGeometry x="50" y="150" width="310" height="60" as="geometry" />
          </mxCell>
        </UserObject>
        <UserObject label="&lt;div&gt;HistogrammEqualization&lt;/div&gt;" link="data:page/id,ks5ivqE2zZKqK-9PlKzZ" id="hhKOj2p4L4FopTOh9O84-11">
          <mxCell style="whiteSpace=wrap;html=1;strokeColor=#FFFFFF;fontColor=#FFFFFF;fillColor=#182E3E;fontSize=16;fontStyle=1" vertex="1" parent="hhKOj2p4L4FopTOh9O84-6">
            <mxGeometry x="50" y="240" width="310" height="60" as="geometry" />
          </mxCell>
        </UserObject>
      </root>
    </mxGraphModel>
  </diagram>
</mxfile>
